<?xml version="1.0" standalone="no"?>
<!DOCTYPE svg PUBLIC "-//W3C//DTD SVG 20010904//EN"
 "http://www.w3.org/TR/2001/REC-SVG-20010904/DTD/svg10.dtd">
<svg version="1.0" xmlns="http://www.w3.org/2000/svg"
 width="1079.000000pt" height="1079.000000pt" viewBox="0 0 1079.000000 1079.000000"
 preserveAspectRatio="xMidYMid meet">
<metadata>
Created by potrace 1.11, written by Peter Selinger 2001-2013
</metadata>
<g transform="translate(0.000000,1079.000000) scale(0.100000,-0.100000)"
fill="#000000" stroke="none">
<path d="M1298 10768 c-7 -13 -20 -35 -27 -50 -15 -29 -31 -37 -31 -16 0 30
-12 -6 -17 -49 -3 -34 -11 -53 -26 -65 -20 -16 -23 -16 -34 -1 -7 9 -14 15
-16 12 -12 -17 -37 -92 -42 -129 -3 -25 -12 -54 -19 -65 -7 -11 -16 -33 -19
-50 -3 -16 -8 -41 -11 -55 -6 -23 -6 -23 6 -7 114 163 138 199 138 207 0 6 5
10 11 10 6 0 9 -3 7 -7 -4 -10 -76 -141 -94 -173 -8 -14 -33 -64 -57 -112 -23
-48 -46 -88 -52 -88 -5 0 -17 -4 -25 -10 -12 -7 -11 -12 5 -30 17 -19 17 -21
2 -33 -9 -6 -17 -30 -19 -52 -2 -24 -8 -39 -15 -38 -8 2 -9 -6 -3 -27 5 -18 5
-32 -1 -35 -5 -4 -9 -19 -9 -35 0 -16 -4 -31 -9 -34 -5 -3 -7 -15 -4 -25 3
-11 -3 -35 -12 -53 -32 -60 -35 -67 -41 -108 -4 -22 -11 -43 -15 -46 -5 -3 -9
-14 -9 -25 0 -19 -19 -59 -32 -70 -5 -3 -9 -18 -10 -35 -1 -16 -8 -39 -16 -51
-9 -15 -10 -23 -2 -28 8 -5 6 -12 -5 -25 -9 -10 -15 -21 -14 -26 1 -5 -3 -22
-9 -37 -7 -15 -11 -31 -10 -35 3 -13 -15 -67 -30 -89 -8 -13 -10 -23 -6 -23 5
0 2 -4 -6 -10 -8 -5 -11 -12 -7 -17 5 -4 25 11 47 34 28 31 43 40 59 36 58
-15 23 -106 -45 -119 -19 -3 -34 -12 -34 -19 0 -8 -9 -16 -19 -20 -12 -3 -18
-12 -15 -20 3 -8 -1 -24 -9 -35 -16 -23 -13 -95 5 -117 12 -15 -14 -29 -32
-18 -5 3 -10 -2 -10 -12 -1 -16 -2 -16 -12 2 -15 28 -15 28 -27 21 -6 -4 -4
-16 5 -34 17 -32 18 -52 3 -52 -6 0 -8 -9 -4 -20 6 -18 3 -20 -21 -14 -18 5
-25 3 -20 -4 3 -6 0 -13 -6 -16 -10 -5 -10 -7 0 -12 15 -7 16 -44 1 -44 -6 0
-8 -7 -5 -15 3 -9 -1 -18 -9 -21 -8 -4 -15 -12 -15 -19 0 -7 -6 -16 -13 -18
-9 -4 -9 -6 0 -6 7 -1 21 9 33 21 29 31 35 16 6 -17 -25 -29 -28 -45 -11 -57
6 -5 5 -12 -4 -20 -11 -11 -13 -11 -6 1 6 11 4 13 -9 8 -10 -4 -20 -7 -22 -7
-14 0 0 -19 19 -24 17 -5 19 -8 8 -15 -8 -5 -12 -19 -9 -35 3 -14 1 -26 -3
-26 -5 0 -9 -8 -9 -18 0 -10 -7 -28 -16 -40 -8 -12 -12 -27 -9 -32 3 -6 2 -10
-3 -10 -5 0 -8 -13 -7 -30 1 -16 -2 -30 -8 -30 -5 0 -7 -6 -4 -14 8 -20 -4
-28 -20 -15 -10 9 -13 8 -13 -5 0 -9 7 -16 16 -16 18 0 14 -26 -16 -117 -12
-36 -14 -55 -6 -63 5 -5 6 -10 2 -10 -5 0 -14 7 -21 17 -7 9 -17 13 -23 9 -8
-4 -4 -14 10 -28 l21 -21 -32 -24 c-18 -14 -30 -31 -27 -39 3 -7 1 -16 -3 -18
-12 -8 -4 -90 9 -94 8 -3 8 -8 0 -17 -5 -7 -9 -21 -9 -31 5 -53 -2 -135 -11
-129 -5 3 -10 19 -10 35 0 16 -4 31 -10 35 -5 3 -7 12 -4 19 3 8 -2 29 -11 46
-13 25 -20 29 -28 21 -9 -9 -8 -14 3 -21 10 -7 11 -12 4 -17 -17 -12 -26 -46
-14 -53 7 -4 6 -16 -4 -35 -8 -16 -15 -55 -15 -90 0 -35 -6 -79 -15 -98 -8
-19 -12 -37 -10 -40 3 -2 0 -24 -6 -48 -6 -24 -13 -65 -15 -90 -2 -25 -10 -59
-16 -75 -6 -16 -13 -39 -15 -51 -4 -36 -15 -63 -23 -63 -5 0 -6 -11 -4 -24 3
-14 -2 -39 -11 -57 -9 -18 -16 -47 -16 -66 0 -18 -4 -33 -9 -33 -5 0 -15 -26
-21 -57 -7 -32 -16 -66 -22 -77 -7 -14 -6 -21 4 -28 10 -7 10 -11 -4 -22 -20
-15 -25 -41 -6 -30 7 4 6 -1 -3 -12 -9 -10 -19 -31 -23 -46 -3 -16 -13 -28
-21 -28 -10 0 -15 -11 -15 -32 0 -25 -3 -29 -10 -18 -6 10 -10 -40 -10 -151 0
-91 3 -169 8 -173 4 -4 12 -22 18 -39 l11 -32 13 38 c20 54 32 46 14 -10 -8
-27 -17 -59 -20 -73 -3 -14 -15 -54 -25 -89 -20 -67 -26 -142 -10 -126 5 6 11
23 13 40 2 21 11 34 30 43 16 7 28 18 29 25 1 23 10 61 14 66 3 2 5 -14 5 -37
0 -23 -3 -42 -7 -42 -5 0 -8 -21 -7 -46 0 -25 -3 -69 -7 -97 -7 -58 -5 -65 13
-49 11 8 13 2 13 -31 0 -23 -4 -48 -9 -56 -5 -8 -4 -16 5 -22 22 -14 25 -11
25 24 0 48 14 126 23 132 8 4 7 -43 -4 -265 -3 -58 -7 -140 -10 -182 -2 -45 1
-80 6 -84 6 -3 2 -12 -8 -19 -10 -7 -14 -17 -10 -21 4 -5 12 -2 17 6 16 27 22
2 7 -29 -13 -26 -13 -33 -2 -45 11 -10 11 -16 2 -25 -9 -9 -9 -14 2 -20 8 -5
11 -16 8 -25 -4 -9 -2 -16 4 -16 6 0 9 -7 6 -15 -4 -8 -2 -17 3 -20 5 -3 5
-18 0 -36 -11 -36 -3 -62 16 -55 8 3 14 -1 14 -8 0 -9 -7 -12 -20 -9 -11 3
-20 0 -20 -6 0 -6 5 -11 10 -11 6 0 10 -4 10 -10 0 -5 -5 -9 -11 -7 -6 1 -14
-4 -17 -12 -3 -8 0 -11 7 -7 6 4 11 1 11 -8 0 -8 -5 -18 -10 -21 -7 -4 -6 -13
1 -27 9 -16 8 -23 -2 -29 -10 -6 -8 -9 9 -9 12 0 22 -4 22 -10 0 -5 -6 -10
-12 -10 -13 0 -17 -55 -5 -67 4 -3 7 -1 7 5 0 7 3 12 8 12 4 0 7 -20 8 -45 0
-25 -4 -45 -9 -45 -5 0 -7 9 -4 20 3 11 1 23 -4 26 -5 3 -9 -9 -9 -25 0 -24 4
-31 19 -31 11 0 23 -5 27 -12 4 -6 3 -8 -2 -5 -6 3 -16 2 -24 -3 -11 -7 -11
-12 -2 -23 7 -7 9 -17 5 -20 -3 -4 -1 -7 5 -7 7 0 12 -7 12 -16 0 -9 -5 -12
-12 -8 -7 4 -4 -3 7 -15 16 -19 17 -24 5 -32 -11 -7 -12 -11 -3 -17 8 -5 16
-60 23 -147 6 -77 14 -147 17 -155 4 -8 7 -51 8 -95 3 -115 15 -246 31 -355 8
-52 19 -126 24 -164 5 -38 12 -83 17 -100 4 -17 8 -42 9 -56 2 -21 29 -170 47
-260 16 -77 174 -558 200 -607 10 -18 22 -33 27 -33 14 0 13 3 -15 51 -14 24
-25 52 -25 62 0 9 -9 36 -19 60 -11 23 -25 67 -32 97 -7 30 -17 60 -21 67 -5
6 -11 32 -14 57 -5 38 -4 45 9 40 17 -6 29 -38 41 -109 2 -13 11 -20 27 -20
15 0 25 -7 27 -18 2 -9 -1 -17 -7 -17 -6 0 -11 -9 -11 -20 0 -11 5 -20 10 -20
17 0 11 -18 -7 -23 -14 -3 -11 -7 11 -16 22 -9 31 -9 36 0 5 7 14 -1 23 -21
14 -27 14 -31 2 -26 -8 3 -15 2 -16 -2 -7 -48 -5 -72 7 -72 8 0 14 -5 14 -11
0 -6 9 -8 21 -4 16 5 20 3 17 -6 -3 -8 -12 -13 -22 -11 -20 4 -20 1 -2 -33 9
-18 16 -22 20 -13 3 7 3 3 0 -9 -3 -14 7 -43 27 -80 18 -32 37 -67 43 -78 6
-11 17 -24 24 -28 6 -4 12 -15 12 -22 0 -8 6 -15 14 -15 8 0 17 -6 19 -12 3
-8 6 -6 6 5 1 24 16 21 35 -8 20 -30 20 -36 1 -29 -8 4 -13 10 -10 14 3 5 1
11 -5 15 -5 3 -10 -2 -10 -12 1 -22 70 -59 70 -37 0 8 5 14 10 14 6 0 10 -4
10 -10 0 -5 4 -10 9 -10 5 0 4 11 -2 24 -7 13 -16 22 -21 19 -5 -4 -6 -1 -2 6
4 6 -7 37 -24 67 -17 31 -30 60 -28 66 2 5 17 -15 32 -46 16 -31 40 -66 54
-76 13 -11 22 -20 18 -20 -4 0 1 -14 11 -30 9 -17 21 -30 25 -30 13 0 9 17 -7
30 -9 7 -14 19 -11 27 3 7 1 13 -4 13 -6 0 -10 7 -10 15 0 8 -4 15 -9 15 -4 0
-20 27 -35 59 -14 32 -33 62 -41 65 -8 3 -15 13 -15 22 0 8 -16 35 -35 58 -19
24 -35 52 -35 64 0 12 -6 25 -14 29 -18 11 -44 65 -39 80 2 6 -5 17 -17 23
-13 7 -19 17 -16 27 3 8 -3 27 -14 43 -11 15 -20 34 -20 42 0 8 -9 31 -20 53
-11 22 -20 46 -20 55 0 9 -7 25 -15 36 -8 10 -15 29 -15 41 0 12 -5 25 -10 28
-6 3 -10 13 -10 22 0 9 -8 35 -18 57 -27 60 -80 231 -107 351 -9 39 -20 79
-25 90 -13 30 -22 125 -12 125 5 0 28 -60 51 -132 58 -180 66 -206 81 -258 7
-25 17 -54 22 -66 5 -12 9 -32 7 -45 -1 -13 7 -44 18 -69 11 -25 23 -58 27
-73 4 -17 11 -25 18 -21 7 5 9 0 6 -14 -4 -15 0 -22 17 -26 17 -4 22 -12 19
-32 -2 -19 1 -24 13 -20 10 4 13 2 10 -8 -3 -8 1 -17 9 -20 8 -3 14 -16 14
-29 0 -14 16 -38 40 -62 22 -21 38 -41 35 -43 -5 -5 -5 -5 86 -112 103 -122
317 -329 424 -412 17 -12 44 -35 60 -49 66 -59 125 -99 125 -85 0 8 -7 21 -15
30 -8 8 -12 21 -9 29 3 8 -1 31 -10 50 -14 35 -12 77 4 77 5 0 19 -12 31 -28
12 -15 19 -19 16 -10 -3 9 0 19 9 22 8 3 14 0 14 -8 0 -20 30 -76 41 -76 5 0
9 -6 9 -13 0 -8 9 -22 20 -32 11 -10 20 -23 20 -28 0 -6 7 -19 17 -29 16 -18
32 -43 55 -88 7 -14 25 -38 41 -54 28 -30 34 -46 18 -46 -5 0 -4 -11 2 -25 7
-14 16 -25 21 -25 5 0 3 -6 -3 -14 -9 -10 -8 -16 4 -26 13 -11 14 -10 9 4 -5
12 -2 15 10 10 9 -3 16 -15 16 -26 0 -12 4 -17 13 -12 8 5 9 4 2 -3 -5 -6 -52
-27 -103 -47 -85 -34 -121 -39 -106 -15 3 5 0 17 -7 26 -8 8 -21 32 -30 52
-14 28 -18 31 -18 14 -1 -12 5 -24 12 -26 7 -4 6 -6 -5 -6 -17 -1 -30 36 -25
74 1 11 -3 19 -9 18 -6 -1 -18 16 -27 38 -15 37 -18 39 -38 29 -16 -9 -18 -14
-9 -20 15 -9 20 -70 6 -70 -5 0 -1 -9 9 -20 10 -11 19 -36 20 -56 1 -20 7 -39
13 -43 12 -7 10 -56 -1 -68 -4 -4 -14 2 -22 13 -15 19 -16 19 -13 -1 1 -11 -1
-26 -6 -34 -6 -10 -5 -12 2 -7 7 4 16 -2 21 -16 5 -13 21 -49 35 -80 14 -31
26 -59 26 -63 0 -3 18 -35 40 -71 22 -36 40 -70 40 -76 0 -5 12 -26 28 -46 15
-20 22 -33 15 -29 -6 4 -14 1 -16 -5 -3 -7 -6 -3 -6 10 -1 33 -18 27 -25 -10
-3 -17 -15 -37 -26 -45 -11 -8 -20 -23 -20 -34 0 -32 -65 -81 -112 -86 -23 -2
-44 -7 -48 -11 -14 -21 -74 -34 -132 -29 -35 3 -72 1 -87 -5 -14 -6 -80 -12
-146 -13 -66 -1 -137 -4 -157 -7 -26 -4 -38 -3 -38 5 0 8 -3 8 -9 -1 -4 -7
-13 -12 -18 -10 -6 2 -11 -1 -11 -7 0 -5 4 -9 10 -7 5 1 7 -2 3 -8 -8 -14 -32
-13 -37 1 -3 9 -11 8 -28 -2 -14 -7 -36 -12 -50 -10 -18 2 -22 0 -14 -8 6 -6
39 -13 75 -14 35 -2 69 -6 75 -9 6 -4 30 -8 53 -9 39 -3 71 -19 37 -19 -9 0
-16 -7 -16 -15 0 -8 -4 -15 -10 -15 -5 0 -10 6 -10 14 0 20 -50 28 -51 7 0
-11 -4 -9 -11 7 -14 27 -25 29 -23 2 2 -31 6 -33 80 -44 17 -3 31 -6 33 -7 1
-1 14 -3 30 -4 15 -1 54 -8 87 -14 33 -7 110 -14 170 -16 69 -2 123 -10 145
-19 34 -15 32 -15 -70 -13 -58 1 -108 7 -112 12 -4 6 -8 2 -8 -7 0 -10 -4 -18
-10 -18 -5 0 -10 8 -10 18 0 14 -2 15 -10 2 -9 -13 -11 -13 -20 0 -6 9 -13 11
-18 5 -12 -17 -42 -17 -48 0 -7 17 -34 21 -34 5 0 -18 -48 -11 -52 7 -3 17 -4
17 -10 1 -6 -13 -1 -19 17 -24 17 -4 25 -13 26 -28 0 -21 0 -21 9 2 5 12 13
22 18 22 13 0 39 -23 45 -40 4 -11 6 -11 6 3 1 20 -7 20 161 2 102 -11 130
-17 130 -26 0 -5 -6 -9 -14 -7 -8 2 -15 -1 -16 -6 0 -5 10 -10 24 -12 18 -2
23 2 19 16 -4 14 0 17 21 13 15 -3 29 -10 32 -15 4 -6 -2 -7 -16 -3 -16 5 -21
3 -18 -6 4 -11 19 -16 73 -22 14 -1 20 4 19 16 -1 10 5 17 17 17 12 0 19 -7
19 -20 0 -22 25 -28 33 -7 3 7 6 5 6 -5 1 -10 7 -15 14 -12 16 6 87 -23 87
-36 0 -5 11 -12 25 -16 14 -3 23 -9 20 -14 -2 -4 6 -12 19 -18 13 -6 34 -29
47 -51 12 -22 26 -38 31 -35 4 3 8 -1 8 -9 0 -16 41 -57 58 -57 7 0 12 -13 12
-30 0 -16 4 -30 8 -30 5 0 7 -13 4 -29 -3 -22 1 -33 17 -43 12 -7 21 -18 21
-25 0 -6 12 -14 28 -17 15 -2 -67 -3 -183 -2 -223 2 -214 -5 30 -24 83 -6 152
-15 153 -20 2 -6 14 -10 27 -10 13 0 26 -4 29 -8 8 -13 -34 -44 -50 -38 -8 3
-12 1 -9 -4 3 -5 21 -12 40 -16 20 -3 38 -11 42 -16 6 -11 -63 -7 -245 13 -52
6 -96 9 -98 6 -2 -2 51 -12 118 -21 112 -16 248 -38 306 -51 13 -3 20 -10 17
-15 -3 -5 -13 -6 -23 -3 -16 6 -16 6 0 -10 9 -10 32 -17 52 -17 20 0 36 -5 36
-10 0 -6 12 -22 27 -35 l28 -24 893 -1 892 0 0 35 c0 34 -1 35 -40 35 -22 0
-40 5 -40 10 0 15 -57 12 -63 -2 -4 -10 -8 -10 -15 1 -7 9 -12 10 -16 2 -4 -6
-20 -11 -37 -11 -26 0 -29 3 -29 30 0 32 -11 37 -54 20 -21 -8 -30 -5 -52 15
l-27 25 29 2 c16 1 101 1 189 0 117 0 147 2 110 8 -27 4 -73 9 -102 9 -50 1
-88 21 -41 21 19 1 84 29 68 30 -3 0 -47 -9 -97 -20 -70 -15 -112 -18 -184
-14 -52 3 -98 9 -104 14 -5 5 -47 11 -92 15 -69 6 -82 10 -86 27 -3 11 -11 18
-19 17 -7 -2 -28 1 -46 5 -27 6 -31 10 -21 22 9 11 7 14 -10 14 -16 0 -21 6
-21 24 0 14 -4 27 -9 30 -4 3 -47 6 -95 7 -48 1 -89 6 -92 11 -3 4 163 8 368
8 225 0 367 4 358 10 -9 5 -163 12 -343 16 -180 4 -330 10 -332 15 -3 4 12 7
33 6 65 -2 137 6 149 16 7 5 19 7 27 4 8 -3 17 -3 21 1 10 10 95 11 95 2 0 -5
-6 -11 -12 -13 -7 -3 0 -6 16 -6 24 -1 27 1 16 14 -11 13 3 15 120 15 132 0
256 14 275 31 5 5 -1 9 -15 10 -42 2 82 20 134 19 26 0 55 5 64 12 12 10 16
10 19 1 5 -15 33 -18 33 -4 0 5 9 11 20 14 14 4 20 0 20 -11 0 -13 2 -14 9 -4
4 7 24 14 44 15 20 1 37 5 37 10 0 4 11 7 25 7 14 0 33 8 43 18 17 17 88 22
122 9 8 -3 53 -11 100 -17 47 -7 94 -18 106 -25 12 -8 53 -17 92 -21 56 -5 72
-10 72 -22 0 -13 3 -13 12 -4 23 23 60 14 148 -37 38 -22 69 -33 78 -27 6 4 8
-3 5 -16 -3 -17 -2 -19 5 -9 8 11 12 10 23 -8 18 -27 33 -28 19 0 -7 11 -10
23 -7 25 2 2 10 -7 17 -21 8 -15 22 -25 35 -25 19 0 22 -9 34 -98 15 -114 7
-222 -16 -222 -11 0 -13 -7 -9 -24 4 -18 1 -28 -11 -35 -12 -7 851 -10 2725
-11 1508 0 2742 3 2742 6 0 4 -13 29 -30 56 -16 26 -30 55 -30 63 0 8 -9 32
-20 52 -11 21 -20 43 -20 50 0 7 -6 10 -14 7 -11 -4 -13 0 -9 14 7 28 -23 71
-46 65 -11 -3 -21 2 -25 12 -8 21 2 37 17 29 7 -4 1 4 -13 17 -14 14 -31 23
-39 20 -8 -2 -12 0 -8 6 10 16 -31 73 -53 73 -12 0 -19 4 -15 9 3 5 1 12 -5
16 -5 3 -10 15 -10 26 0 10 -7 19 -15 19 -8 0 -17 11 -21 24 -7 27 -34 44 -34
21 0 -20 -24 -19 -44 1 -9 8 -20 13 -25 9 -5 -3 -12 -1 -15 3 -3 5 -44 12 -91
16 -72 6 -89 11 -110 32 -16 16 -32 23 -43 19 -11 -3 -28 3 -42 15 -13 11 -35
20 -50 20 -15 0 -33 7 -40 15 -7 8 -21 15 -31 15 -10 0 -20 4 -24 10 -3 5 -11
7 -18 4 -8 -3 -27 2 -43 11 -16 8 -39 15 -52 15 -12 0 -31 5 -41 11 -13 9 -26
9 -49 1 -19 -6 -54 -8 -89 -3 -32 4 -85 6 -118 4 -33 -1 -80 -3 -105 -3 -25
-1 -39 -3 -32 -6 34 -15 5 -25 -65 -22 -56 2 -77 7 -75 15 1 8 -9 13 -28 13
-22 0 -28 -4 -24 -15 4 -11 0 -15 -16 -15 -16 0 -20 4 -16 15 4 12 -4 15 -40
15 -25 0 -54 5 -65 10 -15 8 -19 7 -19 -5 0 -12 -14 -15 -72 -16 -84 -1 -90
-2 -163 -24 -41 -13 -72 -16 -130 -11 -62 5 -77 3 -81 -9 -4 -9 -18 -15 -38
-14 -26 0 -28 2 -11 9 16 7 17 9 3 9 -9 1 -20 6 -24 12 -5 9 4 10 32 5 30 -5
35 -4 22 4 -19 12 -100 14 -163 6 -40 -6 -40 -6 -10 7 17 6 49 24 72 40 24 15
52 27 63 27 21 0 25 7 12 28 -7 10 -24 5 -74 -23 -68 -36 -98 -46 -64 -20 17
13 18 15 3 15 -9 0 -17 5 -17 11 0 6 9 9 20 6 11 -3 18 -1 14 4 -3 5 -13 9
-22 9 -15 0 -15 2 -2 10 11 7 11 10 2 10 -7 0 -10 4 -7 10 3 5 0 10 -8 10 -8
0 -20 7 -27 15 -7 8 -20 15 -30 15 -9 0 -38 11 -64 25 -26 14 -60 25 -75 25
-16 0 -34 7 -41 15 -7 9 -21 13 -31 10 -12 -4 -22 1 -29 15 -8 15 -17 19 -31
15 -10 -4 -29 1 -41 9 -12 9 -19 16 -14 16 5 0 3 7 -5 16 -8 9 -21 13 -35 10
-14 -4 -31 1 -45 13 -20 17 -22 23 -12 39 10 17 9 21 -4 26 -9 4 -20 1 -25 -6
-6 -10 -8 -8 -8 5 0 11 -8 17 -22 17 -17 0 -19 3 -9 9 11 7 9 11 -9 21 -29 15
-86 81 -82 93 2 6 -3 14 -10 18 -10 7 -9 9 5 9 9 0 17 4 17 8 0 5 9 19 20 32
11 13 20 29 20 37 0 8 7 27 15 43 14 27 14 32 -1 55 -8 13 -13 28 -10 33 6 10
-66 72 -83 72 -6 0 -11 5 -11 10 0 6 -7 10 -16 10 -14 0 -14 3 -4 15 10 13 9
15 -8 15 -11 0 -33 10 -49 23 -15 12 -41 24 -58 25 -16 2 -38 12 -48 24 -17
20 -16 21 7 45 14 14 29 22 34 19 6 -3 12 0 15 8 3 8 19 17 35 21 17 3 33 13
36 21 3 8 12 14 20 14 7 0 16 9 19 21 3 12 10 18 16 15 6 -4 19 1 30 11 52 47
71 58 101 55 17 -2 30 1 30 7 0 7 -10 9 -25 5 -14 -3 -25 -2 -25 4 0 14 27 23
48 15 15 -6 15 -5 3 10 -7 9 -9 17 -3 17 5 0 12 -7 16 -15 4 -11 16 -14 45
-10 33 4 41 1 55 -20 11 -17 25 -25 44 -24 23 2 24 2 4 6 -22 4 -46 35 -35 46
3 4 0 13 -7 22 -9 11 -9 15 -1 15 6 0 14 -14 18 -30 7 -36 22 -48 34 -29 5 8
9 9 9 3 0 -7 7 -14 15 -18 13 -4 14 -2 5 14 -6 11 -18 20 -27 20 -12 0 -14 3
-7 10 16 16 38 3 59 -33 10 -18 23 -35 28 -38 5 -3 2 -9 -7 -12 -9 -4 -16 -2
-16 3 0 6 -5 10 -11 10 -5 0 -7 -5 -4 -10 3 -6 2 -10 -3 -10 -6 0 -13 -8 -17
-17 -5 -15 -4 -16 6 -5 8 7 40 12 80 12 37 0 71 4 74 10 11 19 81 10 136 -16
55 -27 150 -57 157 -49 2 2 -16 9 -39 15 -24 7 -55 18 -69 25 -14 7 -37 18
-52 25 -32 15 -32 18 11 30 19 5 29 5 26 -1 -8 -12 2 -11 26 2 26 14 59 2 59
-21 0 -24 18 -36 33 -21 7 7 14 5 23 -7 12 -16 13 -16 19 1 7 16 36 25 34 10
-5 -33 3 -43 36 -43 28 0 33 3 28 17 -5 13 -2 15 11 10 10 -4 20 -7 22 -7 3 0
8 -11 13 -23 7 -17 16 -23 33 -22 12 1 22 7 21 13 -2 7 4 9 14 5 12 -5 15 -2
11 14 -5 17 0 20 31 21 20 1 46 4 58 6 13 3 25 1 28 -4 6 -10 52 -7 63 5 4 4
1 5 -5 1 -7 -4 -13 -3 -13 3 0 5 -21 13 -47 16 -27 3 -56 11 -66 16 -10 5 -27
7 -38 4 -11 -4 -26 -1 -34 5 -8 7 -21 10 -30 7 -8 -4 -17 -2 -20 3 -4 6 -17
10 -31 10 -14 0 -35 5 -47 12 -12 6 -35 14 -52 18 -34 7 -41 33 -10 39 11 2
24 9 30 16 5 7 35 25 65 41 30 16 59 34 65 40 5 6 29 25 53 43 90 70 242 209
289 266 62 75 144 198 192 290 21 38 45 84 54 100 9 17 29 58 44 93 15 34 31
62 35 62 5 0 8 8 8 18 0 14 2 15 10 2 6 -10 4 -17 -7 -24 -13 -7 -13 -10 -2
-17 12 -8 12 -10 0 -18 -10 -6 -10 -10 -1 -16 7 -4 15 -2 19 4 9 14 46 22 66
14 22 -8 18 -25 -4 -18 -25 8 -71 -11 -71 -30 0 -18 -1 -18 44 0 20 8 36 12
36 8 0 -4 7 2 15 13 12 15 16 16 23 6 7 -11 15 -8 37 12 20 18 31 23 36 15 5
-9 15 -6 35 8 16 11 47 28 69 38 22 11 49 27 60 37 67 60 183 178 199 203 29
44 95 173 117 228 26 66 65 243 73 332 2 22 7 83 11 135 6 75 12 98 27 108 10
7 18 22 18 33 0 11 7 27 15 35 8 9 18 27 21 42 3 15 11 41 17 57 l12 30 5 -40
c6 -44 3 -541 -4 -620 -16 -185 -73 -438 -132 -584 -38 -95 -116 -233 -187
-331 -48 -65 -147 -169 -163 -170 -6 0 -19 -10 -30 -21 -19 -21 -119 -89 -131
-89 -3 0 -14 -6 -22 -14 -9 -8 -57 -31 -108 -51 -51 -20 -97 -43 -104 -51 -6
-8 -29 -14 -50 -14 -21 0 -40 -4 -43 -9 -3 -4 -26 -11 -52 -14 -25 -2 -51 -10
-57 -17 -9 -9 -6 -10 16 -5 17 5 27 3 27 -4 0 -11 -28 -15 -80 -12 -21 1 -22
0 -9 -9 20 -12 129 7 126 22 -1 6 5 12 13 13 8 1 45 13 82 25 62 22 67 22 83
6 13 -13 20 -14 31 -5 7 6 18 8 23 5 5 -4 12 -2 16 4 4 6 -6 10 -24 10 -43 0
-39 16 7 27 37 10 38 9 37 -16 -2 -41 3 -42 49 -11 28 19 50 27 64 23 14 -3
24 0 28 10 3 9 19 19 35 22 16 4 29 11 29 16 0 5 9 9 19 9 11 0 22 4 26 10 3
5 12 7 20 3 9 -3 15 1 15 11 0 9 16 23 37 31 21 9 41 21 45 28 4 6 9 9 12 6 3
-3 -3 -15 -14 -27 -12 -12 -17 -22 -12 -22 4 0 7 -12 6 -28 -2 -36 -2 -36 -19
-22 -13 10 -15 9 -15 -9 0 -14 6 -21 20 -21 11 0 20 5 20 11 0 22 18 -2 22
-31 5 -35 5 -35 -17 -14 -25 25 -45 1 -21 -25 16 -17 16 -19 0 -25 -9 -4 -19
-4 -22 -1 -3 3 0 5 7 5 8 0 6 8 -5 25 -13 20 -13 25 -3 25 10 1 9 4 -3 14 -10
7 -18 23 -18 35 0 11 -6 21 -12 21 -24 0 -92 -28 -96 -38 -2 -6 -9 -9 -17 -6
-15 6 -48 -22 -58 -49 -3 -9 -11 -17 -16 -17 -13 0 -22 -27 -15 -45 9 -23 24
-18 21 6 -3 34 20 33 26 -1 8 -37 26 -40 20 -3 -2 16 -6 37 -7 48 -4 27 12 45
39 45 18 0 21 -4 17 -25 -5 -28 -22 -34 -22 -8 0 13 -3 14 -11 6 -7 -7 -9 -19
-6 -27 7 -17 37 -22 37 -6 0 6 9 10 19 10 18 0 19 2 5 30 -15 29 -12 50 6 50
4 0 6 -8 3 -19 -2 -10 2 -25 10 -33 9 -8 13 -25 10 -40 -4 -20 -9 -24 -28 -20
-20 3 -23 1 -18 -16 2 -11 0 -23 -5 -26 -17 -10 -76 -15 -87 -6 -13 10 -75 1
-75 -11 0 -5 -9 -9 -20 -9 -11 0 -20 -7 -20 -15 0 -17 -16 -20 -25 -5 -3 5
-11 7 -18 5 -7 -3 -22 3 -35 13 -21 16 -22 20 -8 31 11 9 16 10 16 2 0 -6 -6
-11 -12 -11 -9 0 -8 -3 2 -10 8 -5 16 -7 18 -6 8 9 10 66 2 66 -6 0 -10 -4
-10 -8 0 -5 -6 -9 -12 -10 -19 -2 -62 -9 -68 -11 -3 -1 5 -9 16 -19 12 -9 24
-29 28 -43 5 -25 4 -27 -45 -33 -39 -5 -49 -10 -45 -21 3 -8 1 -15 -3 -15 -5
0 -11 6 -14 14 -4 9 -14 12 -27 9 -11 -3 -28 1 -38 9 -19 16 -62 22 -62 7 0
-5 -9 -9 -20 -9 -14 0 -20 7 -20 23 0 16 -3 18 -9 8 -7 -10 -10 -11 -16 0 -6
9 -11 6 -17 -10 -7 -20 -14 -23 -53 -19 -38 3 -45 0 -45 -14 0 -22 -16 -24
-24 -3 -3 8 3 20 13 27 18 13 18 14 -4 24 -16 8 -22 8 -22 0 0 -6 -1 -20 -2
-31 l-2 -20 -9 20 -9 20 -1 -20 c-2 -11 -2 -23 -1 -27 0 -5 -6 -8 -15 -8 -14
0 -14 3 -4 15 18 22 3 32 -18 12 -15 -16 -15 -19 -2 -27 20 -13 50 -13 50 0 0
6 4 10 10 10 5 0 7 -6 4 -14 -7 -17 33 -26 57 -12 19 11 69 0 69 -15 0 -6 -4
-8 -9 -4 -5 3 -13 0 -17 -6 -7 -12 15 -31 28 -23 15 10 50 -7 44 -22 -11 -29
3 -39 49 -36 32 3 45 8 45 19 0 12 3 13 14 4 10 -8 21 -9 33 -3 36 19 95 22
125 6 25 -13 30 -13 43 0 15 14 51 11 61 -5 3 -5 10 -9 15 -9 6 0 8 4 4 9 -3
6 4 15 15 21 11 6 20 8 20 4 0 -3 16 4 36 15 27 16 35 18 31 7 -8 -21 11 -24
52 -10 52 19 72 18 64 -3 -5 -16 -4 -15 9 1 10 13 17 15 22 8 11 -18 23 -14
29 8 5 20 37 29 37 10 0 -5 7 -10 16 -10 13 0 14 3 5 13 -8 10 -4 20 19 42 25
24 30 26 30 11 0 -16 2 -17 17 -5 15 12 16 12 10 -3 -3 -10 -2 -20 3 -23 6 -4
10 3 10 14 0 11 9 25 19 31 27 14 34 13 27 -5 -3 -8 -2 -15 3 -15 5 0 12 12
16 27 6 26 8 26 19 10 7 -9 18 -17 24 -17 18 0 26 22 11 31 -19 11 1 30 64 62
41 21 49 22 56 9 11 -20 33 -5 29 20 -3 23 36 45 48 27 3 -6 16 1 30 16 28 30
31 45 9 45 -28 0 -15 17 17 25 28 6 30 8 13 14 -19 8 -19 8 1 19 25 13 34 7
34 -25 0 -12 5 -23 11 -23 6 0 9 7 6 15 -4 8 -2 17 2 20 13 7 34 -22 26 -36
-4 -6 -8 -41 -10 -78 -1 -36 -8 -96 -15 -133 -14 -67 -14 -69 18 -129 1 -4 -7
-9 -19 -12 -11 -3 -19 -11 -17 -18 4 -13 48 -21 48 -8 0 3 8 9 19 12 14 3 17
0 14 -13 -4 -14 1 -16 26 -12 37 5 45 25 43 106 l-1 59 24 -23 c22 -21 25 -21
25 -6 0 13 5 17 20 13 14 -4 20 0 20 13 0 21 -33 33 -49 17 -14 -14 -25 -2
-18 17 4 9 13 13 21 10 10 -4 14 0 13 15 -1 12 -5 21 -9 21 -4 0 -8 5 -8 11 0
8 5 8 15 -1 8 -7 22 -9 31 -6 22 8 44 -11 37 -32 -4 -13 -2 -12 10 3 21 25 22
55 2 55 -8 0 -15 6 -15 14 0 9 7 12 20 9 11 -3 20 0 20 6 0 7 9 24 20 39 11
15 23 46 27 67 3 22 13 45 21 51 17 12 8 34 -14 34 -19 0 -18 16 1 24 8 3 15
13 15 23 0 10 11 30 25 45 29 31 31 41 10 58 -19 16 -19 34 0 27 17 -7 30 9
15 18 -5 3 -10 10 -10 15 0 14 32 21 46 9 9 -8 14 -8 14 -1 0 12 -28 42 -39
42 -15 0 -51 -38 -51 -53 0 -10 -6 -14 -14 -11 -7 3 -16 -2 -19 -10 -8 -20
-27 -21 -27 -1 0 25 -38 18 -42 -8 -2 -16 -11 -23 -30 -25 -33 -4 -37 13 -8
28 11 6 20 16 20 22 0 7 -4 7 -14 -1 -20 -17 -30 3 -14 28 6 11 21 22 31 25
11 3 16 9 12 16 -4 6 -13 9 -21 6 -24 -9 -16 25 11 46 14 11 25 25 25 33 0 16
-25 26 -45 19 -11 -5 -13 -2 -9 10 4 9 1 16 -6 16 -10 0 -10 3 0 15 13 16 49
11 61 -7 3 -5 5 8 5 29 -1 21 5 46 13 56 21 26 27 107 7 107 -23 0 -25 12 -11
53 8 23 9 40 3 43 -5 3 -2 14 7 24 9 10 14 24 10 29 -3 6 -2 11 3 11 6 0 12
-7 16 -15 3 -8 10 -15 16 -15 16 0 12 28 -7 38 -25 14 -6 76 25 80 27 4 28 16
2 42 -21 21 -27 60 -9 60 5 0 8 4 4 10 -11 18 7 60 25 60 25 0 35 18 20 35
-10 12 -10 18 0 30 14 16 4 39 -15 32 -8 -4 -12 5 -13 26 -1 30 0 31 14 12 11
-15 18 -17 32 -9 14 9 17 27 17 100 1 49 6 98 12 108 11 21 15 14 43 -97 17
-64 29 -69 17 -6 -5 27 -7 53 -3 57 13 12 48 -40 42 -63 -8 -30 4 -65 21 -65
11 0 14 -7 11 -25 -3 -14 -1 -22 4 -19 6 4 7 25 3 48 -7 49 -9 92 -5 126 3 23
-2 92 -16 215 -3 28 -7 87 -8 133 -2 45 -9 89 -16 97 -7 8 -10 21 -7 28 3 8
-3 31 -12 53 -21 46 -44 183 -36 206 4 9 -1 28 -10 42 -10 15 -15 37 -12 52 2
14 -2 47 -10 72 -7 26 -15 94 -17 151 -3 81 -8 108 -20 117 -9 6 -16 20 -16
30 1 18 1 18 15 0 8 -11 15 -16 15 -11 0 4 8 0 19 -9 16 -15 19 -15 25 -1 7
20 55 38 70 27 6 -5 19 -9 29 -9 16 0 17 40 17 698 0 548 -3 698 -12 702 -10
4 -10 6 0 6 7 1 12 16 12 42 0 45 -20 51 -30 8 -5 -20 -7 -21 -13 -6 -3 9 -6
20 -7 22 0 3 -11 18 -25 33 -14 15 -25 32 -25 39 0 7 -7 13 -15 13 -8 0 -12 6
-9 14 3 8 1 17 -5 21 -6 3 -11 17 -11 31 0 13 -4 24 -10 24 -5 0 -13 12 -17
28 -3 15 -15 41 -25 57 -10 17 -18 42 -18 57 0 15 -4 29 -9 32 -5 3 -11 17
-13 31 -4 18 -1 25 10 25 13 0 13 3 4 12 -7 7 -12 19 -12 28 0 13 1 13 10 0 7
-12 12 -12 21 -3 10 10 6 21 -19 52 -35 44 -82 176 -82 231 0 24 3 31 9 21 5
-7 13 -11 19 -7 5 3 13 -2 16 -11 5 -12 10 -13 17 -6 8 8 4 21 -16 47 -24 31
-27 43 -22 83 3 25 -1 83 -8 129 -8 45 -11 91 -8 102 2 11 -2 55 -11 97 -9 42
-16 86 -16 96 0 18 1 18 18 2 44 -42 72 -62 72 -51 0 6 11 1 25 -12 20 -19 25
-20 25 -7 0 9 -4 19 -10 22 -5 3 -10 15 -10 26 0 10 -5 19 -11 19 -5 0 -8 4
-5 8 3 5 -6 19 -19 30 -28 24 -34 47 -10 38 8 -3 15 -3 15 0 0 9 -70 104 -102
139 -19 21 -24 32 -15 37 7 5 1 8 -15 8 -21 0 -28 5 -28 20 0 11 -6 20 -13 20
-13 0 -47 34 -47 48 0 17 -83 178 -95 185 -8 4 -17 28 -21 53 -4 32 -13 50
-30 61 -13 8 -24 24 -24 34 0 10 -9 23 -20 29 -11 6 -18 15 -15 20 11 18 -19
90 -37 90 -10 0 -18 5 -18 10 0 6 5 10 10 10 16 0 0 49 -36 113 -19 32 -34 62
-34 67 0 5 -9 14 -19 20 -25 13 -64 77 -58 93 4 12 -5 34 -47 107 -16 30 -17
32 -1 26 13 -5 16 -2 11 10 -5 14 -4 15 9 4 8 -7 12 -16 9 -21 -3 -5 0 -17 5
-26 9 -16 10 -16 11 5 0 12 6 22 13 22 6 1 1 10 -13 21 -14 12 -25 29 -25 38
0 9 -6 16 -13 16 -12 0 -32 22 -32 38 0 4 4 7 9 7 13 0 121 -89 156 -129 100
-114 116 -121 32 -13 -27 35 -47 66 -43 69 3 4 6 1 6 -5 0 -7 7 -12 15 -12 8
0 38 -19 67 -43 29 -23 65 -50 81 -60 15 -10 27 -25 27 -35 0 -12 3 -13 8 -4
6 9 16 4 37 -18 16 -16 32 -30 37 -30 8 0 29 -17 77 -62 15 -16 35 -28 43 -28
8 0 21 -12 29 -26 12 -24 45 -44 70 -44 5 0 13 10 18 23 10 26 -5 51 -27 42
-8 -3 -16 3 -19 14 -3 11 -15 21 -26 23 -12 2 -23 13 -27 26 -3 13 -8 23 -12
23 -4 0 -21 13 -39 30 -17 16 -35 29 -40 29 -5 0 -9 14 -9 30 0 17 -6 31 -12
31 -7 1 -20 2 -28 3 -8 0 -15 10 -15 21 0 11 -6 20 -12 20 -16 0 -83 61 -83
75 0 5 -8 10 -17 10 -14 0 -15 2 -4 9 10 7 11 13 2 30 -7 11 -16 21 -21 21 -5
0 -7 6 -4 14 3 7 -15 56 -39 107 -24 52 -54 116 -66 143 -22 48 -23 69 -2 44
6 -7 21 -26 35 -43 13 -16 27 -28 30 -24 3 3 -7 20 -22 37 -67 80 -90 111
-127 165 -21 31 -41 57 -45 57 -3 0 -13 15 -22 33 -9 17 -38 60 -66 95 -28 35
-54 72 -57 83 -4 10 -10 19 -15 19 -5 0 -12 10 -15 21 -6 17 -9 19 -16 8 -8
-12 -11 -12 -19 1 -5 8 -10 20 -10 27 0 6 -8 14 -17 18 -10 3 -31 24 -48 46
-16 22 -37 49 -47 59 -41 46 -120 153 -139 190 -12 22 -25 40 -30 40 -5 0 -9
11 -9 24 0 14 -4 28 -10 31 -26 16 -2 22 88 19 183 -5 247 -3 362 11 63 7 171
17 240 20 69 4 130 11 135 15 6 4 46 10 90 14 44 4 108 16 142 28 49 16 66 18
77 9 9 -8 16 -8 20 -2 4 6 13 8 20 5 7 -3 20 1 27 8 8 7 27 20 43 28 16 8 31
22 33 31 5 18 52 45 96 54 l27 5 -1 135 -1 134 -30 -6 c-16 -3 -33 -2 -37 3
-25 35 51 34 -4730 34 l-4679 0 -14 -22z m59 -83 c-23 -22 -33 -18 -12 5 10
11 20 18 23 16 2 -3 -3 -12 -11 -21z m-37 -45 c-6 -11 -16 -20 -22 -20 -6 0
-3 9 7 20 10 11 20 20 22 20 2 0 -1 -9 -7 -20z m-61 -85 c-12 -19 -26 -35 -31
-35 -6 0 -4 10 4 23 8 12 18 28 22 35 4 6 11 12 16 12 5 0 0 -16 -11 -35z
m-181 -527 c-5 -15 -23 -11 -26 6 -2 11 2 14 13 10 9 -4 14 -11 13 -16z m8387
-118 c10 -11 16 -20 13 -20 -3 0 -13 9 -23 20 -10 11 -16 20 -13 20 3 0 13 -9
23 -20z m47 -75 c10 2 17 0 15 -3 -1 -4 12 -21 28 -37 79 -80 133 -146 258
-310 54 -70 84 -101 91 -94 3 2 -20 33 -49 69 -95 115 -107 130 -100 130 4 0
23 -17 43 -38 102 -106 132 -142 132 -162 0 -12 -4 -18 -10 -15 -5 3 -10 0
-10 -8 0 -21 12 -28 26 -16 9 7 18 1 35 -23 13 -18 26 -35 29 -38 10 -8 20
-40 13 -40 -4 0 -17 12 -30 28 -33 40 -28 12 7 -36 36 -49 36 -52 10 -45 -11
3 -30 18 -41 34 -11 16 -27 29 -34 29 -13 0 -39 34 -40 52 0 4 -17 19 -37 33
-21 14 -38 32 -38 40 0 9 -19 35 -42 60 -24 24 -55 57 -69 72 -14 15 -43 45
-65 65 -60 58 -74 76 -74 99 0 11 -9 34 -20 49 -11 16 -17 35 -14 44 5 12 2
15 -10 10 -11 -4 -16 -1 -16 10 0 9 -9 25 -20 36 -25 25 -27 39 -2 18 9 -9 25
-14 34 -13z m-8057 -17 c14 -6 25 -17 25 -25 0 -7 11 -13 25 -13 15 0 31 -9
41 -25 9 -14 20 -23 24 -20 12 8 91 -55 84 -66 -4 -7 -27 -10 -58 -7 -63 5
-138 52 -130 81 4 13 -1 20 -16 24 -12 3 -19 11 -16 19 3 7 1 16 -4 19 -10 6
-14 25 -5 25 2 0 16 -5 30 -12z m-197 -20 c-2 -18 -8 -22 -28 -20 -33 5 -35 8
-20 27 20 24 52 19 48 -7z m8222 -33 c10 -12 10 -15 -3 -15 -8 0 -17 7 -21 15
-3 8 -2 15 3 15 5 0 14 -7 21 -15z m186 -26 c19 -22 19 -22 -3 -10 -13 6 -23
16 -23 21 0 15 5 12 26 -11z m-140 -25 c26 -27 29 -34 16 -34 -5 0 -18 14 -30
30 -28 37 -18 39 14 4z m-102 -15 c-3 -5 -10 -7 -15 -3 -5 3 -7 10 -3 15 3 5
10 7 15 3 5 -3 7 -10 3 -15z m312 -47 c-6 -5 -36 23 -36 34 0 4 9 -1 20 -11
11 -10 18 -20 16 -23z m119 -122 c10 -11 16 -20 13 -20 -3 0 -13 9 -23 20 -10
11 -16 20 -13 20 3 0 13 -9 23 -20z m-7661 -143 c11 -8 15 -19 10 -30 -9 -24
-26 -16 -35 16 -8 30 -2 33 25 14z m-300 -33 c3 -8 2 -12 -4 -9 -6 3 -10 10
-10 16 0 14 7 11 14 -7z m8166 -155 c0 -5 7 -9 16 -9 8 0 12 -5 9 -10 -4 -6
-2 -16 3 -23 5 -7 12 -24 16 -40 6 -26 5 -27 -14 -15 -11 7 -20 16 -20 20 0 5
-8 8 -19 8 -23 0 -35 36 -14 44 11 4 11 10 3 26 -9 16 -8 18 5 14 8 -4 15 -10
15 -15z m-9016 -60 c-3 -5 -10 -7 -15 -3 -5 3 -7 10 -3 15 3 5 10 7 15 3 5 -3
7 -10 3 -15z m9081 -69 c3 -5 1 -10 -4 -10 -6 0 -11 5 -11 10 0 6 2 10 4 10 3
0 8 -4 11 -10z m-7410 -50 c3 -5 1 -10 -4 -10 -6 0 -11 5 -11 10 0 6 2 10 4
10 3 0 8 -4 11 -10z m903 -67 c17 -3 32 -9 32 -13 0 -11 -130 -10 -155 1 -17
8 -15 9 8 6 15 -3 30 0 33 4 3 5 -2 9 -10 9 -9 0 -16 4 -16 9 0 5 16 5 38 -1
20 -5 52 -12 70 -15z m2962 -33 c0 -5 -4 -10 -10 -10 -5 0 -10 5 -10 10 0 6 5
10 10 10 6 0 10 -4 10 -10z m-2900 -14 c0 -3 -4 -8 -10 -11 -5 -3 -10 -1 -10
4 0 6 5 11 10 11 6 0 10 -2 10 -4z m38 -18 c11 -14 10 -16 -7 -11 -12 3 -17
11 -14 19 3 8 6 14 7 12 1 -2 7 -11 14 -20z m178 4 c10 -10 28 -22 39 -26 l20
-8 -20 -8 -20 -9 20 -1 c17 0 18 -2 4 -10 -13 -8 -37 -8 -81 -1 -13 2 -9 29 5
35 10 5 10 7 0 12 -17 8 -17 34 0 34 7 0 22 -8 33 -18z m-1848 -121 c-4 -32
-38 -43 -38 -12 0 11 5 23 11 26 6 4 8 14 4 22 -5 13 -3 14 10 3 9 -8 15 -25
13 -39z m7887 29 c3 -5 -1 -10 -9 -10 -9 0 -16 5 -16 10 0 6 4 10 9 10 6 0 13
-4 16 -10z m-5950 -51 c-3 -4 2 -20 10 -35 17 -33 20 -90 5 -99 -6 -3 -7 1 -4
9 4 11 0 16 -12 17 -11 0 -13 3 -7 6 10 3 9 13 -2 40 -19 45 -19 70 0 70 8 0
12 -4 10 -8z m875 -39 c0 -5 -4 -10 -10 -10 -5 0 -10 5 -10 10 0 6 5 10 10 10
6 0 10 -4 10 -10z m-4100 -46 c15 -39 13 -104 -4 -104 -16 0 -36 50 -36 90 0
46 25 55 40 14z m1265 16 c3 -5 1 -10 -4 -10 -6 0 -11 5 -11 10 0 6 2 10 4 10
3 0 8 -4 11 -10z m7965 -40 c0 -5 -4 -10 -10 -10 -5 0 -10 5 -10 10 0 6 5 10
10 10 6 0 10 -4 10 -10z m-2000 -14 c0 -10 -32 -36 -43 -36 -7 0 -1 9 13 20
26 21 30 23 30 16z m-65 -58 c-1 -18 -9 -34 -16 -36 -8 -2 -24 -8 -36 -14 -13
-6 -26 -8 -29 -5 -4 4 5 11 20 16 14 6 26 16 26 22 0 7 8 18 18 26 15 13 15
13 -5 4 -31 -16 -41 -13 -19 4 31 24 44 18 41 -17z m-7161 -123 c5 -29 12 -45
21 -45 9 0 16 -15 20 -37 15 -105 28 -157 51 -210 27 -59 40 -133 25 -133 -10
0 -46 52 -43 63 1 4 -5 7 -13 7 -8 0 -19 8 -24 19 -14 26 -47 135 -60 199 -12
58 -15 175 -5 185 13 12 22 -3 28 -48z m5724 10 c-3 -3 -9 2 -12 12 -6 14 -5
15 5 6 7 -7 10 -15 7 -18z m119 -16 c6 -6 9 -17 6 -24 -2 -7 4 -15 14 -18 10
-3 2 -5 -16 -6 -27 -1 -32 2 -23 11 7 7 8 17 1 30 -11 20 1 24 18 7z m33 1 c0
-5 -4 -10 -9 -10 -6 0 -13 5 -16 10 -3 6 1 10 9 10 9 0 16 -4 16 -10z m128
-36 c-1 -34 -3 -36 -31 -30 -16 3 -42 6 -58 6 -16 0 -29 5 -29 10 0 6 6 10 14
10 8 0 18 9 21 20 5 15 15 20 45 20 39 0 39 -1 38 -36z m-2728 -15 c0 -11 -7
-19 -17 -19 -14 0 -15 2 -4 9 9 6 10 11 2 15 -16 11 -13 26 4 20 8 -4 15 -15
15 -25z m2820 21 c0 -5 -5 -10 -11 -10 -5 0 -7 5 -4 10 3 6 8 10 11 10 2 0 4
-4 4 -10z m-2816 -76 c9 -23 7 -36 -3 -30 -12 8 -21 46 -11 46 4 0 11 -7 14
-16z m-1391 -118 c3 -8 0 -22 -7 -31 -11 -15 -13 -15 -25 -1 -15 18 -8 46 13
46 7 0 16 -6 19 -14z m-577 -111 c5 -44 4 -56 -5 -51 -6 4 -18 3 -26 -4 -11
-9 -14 -5 -14 22 0 18 5 53 11 76 14 54 25 40 34 -43z m1969 -62 c-8 -35 -13
-39 -26 -26 -15 15 -2 53 18 53 12 0 14 -6 8 -27z m3211 1 c78 -41 83 -49 78
-107 -7 -93 -76 -227 -149 -289 -27 -24 -95 -64 -122 -72 -33 -10 -30 16 9 71
17 26 45 80 62 122 31 74 31 79 24 175 -10 136 4 150 98 100z m-4646 -44 c0
-5 -4 -10 -10 -10 -5 0 -10 5 -10 10 0 6 5 10 10 10 6 0 10 -4 10 -10z m-1689
-41 c3 -8 17 -34 29 -57 15 -31 19 -47 12 -54 -17 -17 -37 -3 -56 37 -15 31
-16 39 -5 46 11 8 11 11 -4 20 -9 6 -15 15 -11 20 8 13 26 7 35 -12z m1159
-10 c0 -5 -11 -9 -25 -9 -27 0 -32 9 -13 28 12 12 38 -1 38 -19z m-110 11 c0
-5 -4 -10 -9 -10 -6 0 -13 5 -16 10 -3 6 1 10 9 10 9 0 16 -4 16 -10z m634 -6
c3 -9 4 -20 1 -25 -7 -10 -55 18 -55 32 0 16 48 10 54 -7z m-2188 -11 c-3 -10
-8 -30 -12 -45 -9 -42 -25 -34 -18 10 7 43 11 52 25 52 6 0 8 -8 5 -17z m1684
-21 c0 -20 -23 -31 -44 -20 -20 11 -20 11 -1 19 27 10 45 11 45 1z m490 -22
c0 -5 -2 -10 -4 -10 -3 0 -8 5 -11 10 -3 6 -1 10 4 10 6 0 11 -4 11 -10z
m-330 -141 c0 -6 -4 -7 -10 -4 -5 3 -10 11 -10 16 0 6 5 7 10 4 6 -3 10 -11
10 -16z m-1235 -10 c11 -17 -1 -21 -15 -4 -8 9 -8 15 -2 15 6 0 14 -5 17 -11z
m1055 -16 c0 -21 -3 -24 -9 -14 -5 8 -7 20 -4 28 8 21 13 15 13 -14z m70 -23
c0 -5 -7 -7 -15 -4 -8 4 -12 10 -9 15 6 11 24 2 24 -11z m115 10 c3 -5 -1 -10
-9 -10 -8 0 -18 5 -21 10 -3 6 1 10 9 10 8 0 18 -4 21 -10z m-1215 -4 c0 -3
-4 -8 -10 -11 -5 -3 -10 -1 -10 4 0 6 5 11 10 11 6 0 10 -2 10 -4z m1050 -36
c0 -5 -2 -10 -4 -10 -3 0 -8 5 -11 10 -3 6 -1 10 4 10 6 0 11 -4 11 -10z
m-1009 -36 c22 -36 23 -44 5 -44 -8 0 -20 15 -27 33 -7 17 -15 36 -17 41 -12
23 24 -4 39 -30z m-781 12 c0 -3 -4 -8 -10 -11 -5 -3 -10 -1 -10 4 0 6 5 11
10 11 6 0 10 -2 10 -4z m1957 -18 c-3 -8 -6 -5 -6 6 -1 11 2 17 5 13 3 -3 4
-12 1 -19z m1733 -39 c0 -17 -5 -29 -11 -27 -6 2 -10 7 -10 11 1 4 1 16 1 27
0 11 5 20 10 20 6 0 10 -14 10 -31z m-2410 6 c-7 -8 -17 -12 -23 -8 -6 4 -3 9
9 14 27 11 28 11 14 -6z m2350 -9 c0 -19 -4 -23 -20 -19 -23 6 -25 14 -8 31
18 18 28 14 28 -12z m-1687 -140 c4 -10 1 -13 -8 -9 -8 3 -12 9 -9 14 7 12 11
11 17 -5z m1687 -45 c0 -6 -4 -12 -8 -15 -5 -3 -9 1 -9 9 0 8 4 15 9 15 4 0 8
-4 8 -9z m-1645 -81 c25 -10 57 -64 49 -84 -3 -7 1 -16 9 -19 12 -4 43 -67 33
-67 -2 0 -17 5 -34 11 -28 10 -30 13 -25 45 3 21 2 34 -5 34 -6 0 -9 9 -7 20
5 24 -13 26 -30 3 -14 -19 -39 -8 -31 14 3 8 1 11 -4 8 -14 -9 -12 39 2 53 9
9 14 9 16 2 2 -6 14 -15 27 -20z m5 -80 c0 -5 -4 -10 -10 -10 -5 0 -10 5 -10
10 0 6 5 10 10 10 6 0 10 -4 10 -10z m-1036 -85 c14 -13 26 -28 26 -33 0 -4
15 -13 33 -20 18 -6 42 -19 52 -27 19 -15 18 -16 -15 -9 -19 3 -36 10 -38 15
-2 5 -9 9 -15 9 -12 0 -87 72 -87 84 0 13 18 5 44 -19z m3694 -7 c-4 -29 -38
-38 -38 -10 0 19 11 29 33 31 5 1 7 -9 5 -21z m-3433 -8 c3 -5 -1 -10 -9 -10
-9 0 -16 5 -16 10 0 6 4 10 9 10 6 0 13 -4 16 -10z m1963 -23 c4 -20 -25 -34
-40 -19 -15 15 -1 44 19 40 10 -2 19 -11 21 -21z m-1118 -18 c0 -6 -4 -7 -10
-4 -5 3 -10 11 -10 16 0 6 5 7 10 4 6 -3 10 -11 10 -16z m-540 -9 c0 -5 -4
-10 -10 -10 -5 0 -10 5 -10 10 0 6 5 10 10 10 6 0 10 -4 10 -10z m66 -8 c11
-7 27 -42 19 -42 -7 0 -45 39 -45 45 0 7 13 6 26 -3z m-316 -32 c0 -5 -7 -10
-15 -10 -8 0 -15 5 -15 10 0 6 7 10 15 10 8 0 15 -4 15 -10z m89 -37 c-13 -15
-12 -15 9 -4 24 13 30 0 8 -18 -13 -11 -55 -7 -79 6 -16 9 16 33 45 33 27 0
29 -2 17 -17z m911 -8 c0 -8 -2 -15 -4 -15 -2 0 -6 7 -10 15 -3 8 -1 15 4 15
6 0 10 -7 10 -15z m-706 -31 c6 -6 18 -13 26 -16 12 -5 11 -7 -4 -13 -13 -6
-23 -3 -33 11 -11 15 -15 16 -22 5 -5 -8 -16 -11 -26 -7 -15 6 -14 10 11 33
21 19 29 22 33 12 2 -7 9 -19 15 -25z m46 32 c0 -11 -19 -15 -25 -6 -3 5 1 10
9 10 9 0 16 -2 16 -4z m620 -27 c0 -6 -4 -7 -10 -4 -5 3 -10 11 -10 16 0 6 5
7 10 4 6 -3 10 -11 10 -16z m-990 1 c13 -9 13 -11 0 -20 -23 -15 -63 -8 -66
13 -2 12 5 17 24 17 15 0 34 -5 42 -10z m1062 -32 c34 -61 47 -98 35 -98 -10
0 -67 98 -67 115 0 14 21 2 32 -17z m-926 -3 c-3 -8 -1 -15 4 -15 6 0 10 -4
10 -10 0 -13 -57 -13 -65 0 -12 20 4 40 31 40 19 0 25 -4 20 -15z m6239 -45
c3 -5 -1 -10 -9 -10 -9 0 -16 5 -16 10 0 6 4 10 9 10 6 0 13 -4 16 -10z
m-1735 -137 c0 -6 -4 -15 -10 -18 -5 -3 -10 1 -10 9 0 9 -4 15 -8 14 -9 -3
-82 44 -82 53 0 3 25 -6 55 -20 30 -14 55 -31 55 -38z m1700 27 c12 -8 12 -10
-5 -10 -11 0 -27 5 -35 10 -12 8 -12 10 5 10 11 0 27 -5 35 -10z m-5197 -20
c3 -11 3 -20 1 -20 -2 0 -8 9 -14 20 -6 11 -7 20 -2 20 6 0 12 -9 15 -20z
m3447 -22 c0 -5 -5 -8 -11 -8 -15 0 -60 36 -53 43 7 6 64 -25 64 -35z m200 14
c40 -20 42 -47 4 -56 -23 -6 -24 -8 -10 -34 10 -19 11 -33 5 -44 -14 -26 -36
-11 -42 28 -6 36 -33 72 -45 59 -4 -4 -1 -10 6 -12 21 -8 13 -23 -13 -23 -26
0 -34 15 -12 23 6 3 3 6 -8 6 -14 1 -20 8 -21 26 -1 16 3 24 10 22 6 -2 11 -9
11 -14 0 -6 3 -15 8 -19 4 -4 7 -1 7 7 0 12 42 45 60 48 3 1 21 -7 40 -17z
m1260 -37 c0 -8 -4 -15 -10 -15 -5 0 -10 7 -10 15 0 8 5 15 10 15 6 0 10 -7
10 -15z m100 -10 c0 -3 -8 -13 -17 -23 -10 -10 -23 -27 -30 -38 -10 -17 -12
-14 -12 22 -1 48 14 67 41 53 10 -5 18 -12 18 -14z m-3280 5 c-14 -4 -34 -8
-45 -8 -16 0 -15 2 5 8 14 4 34 8 45 8 16 0 15 -2 -5 -8z m-85 -20 c-11 -5
-31 -8 -45 -8 -23 0 -22 1 5 8 42 11 65 11 40 0z m861 -38 c-10 -2 -22 0 -28
6 -6 6 0 7 19 4 21 -5 23 -7 9 -10z m669 -40 c-4 -10 0 -12 11 -8 14 5 16 1
10 -26 -4 -23 -3 -28 3 -18 12 17 11 17 39 -38 22 -43 28 -61 15 -49 -3 4 -14
0 -23 -8 -16 -15 -18 -14 -24 10 -4 14 -11 25 -17 25 -6 0 -8 9 -4 21 5 15 4
19 -4 15 -7 -5 -11 3 -11 21 0 22 -2 25 -10 13 -8 -12 -10 -10 -10 8 0 13 -4
20 -10 17 -6 -4 -9 -1 -8 6 2 7 -2 13 -9 14 -7 0 -18 7 -25 15 -11 12 -11 12
6 0 18 -13 19 -13 14 1 -4 9 -1 22 5 28 14 14 60 -27 52 -47z m3904 -57 c-14
-13 -69 51 -69 80 0 40 13 35 46 -18 22 -35 30 -55 23 -62z m-3556 88 c-7 -3
-13 -12 -14 -21 0 -11 -2 -13 -6 -4 -6 15 17 46 26 36 3 -4 0 -9 -6 -11z
m-2393 -40 c0 -10 -8 -27 -17 -38 -14 -18 -15 -18 -9 -2 3 10 6 27 6 38 0 10
5 19 10 19 6 0 10 -8 10 -17z m2417 -4 c2 -17 -1 -18 -13 -8 -13 11 -10 20 11
29 1 0 1 -9 2 -21z m-988 -28 c7 -5 9 -11 4 -14 -6 -4 -19 0 -29 8 -15 11 -16
14 -4 15 8 0 21 -4 29 -9z m-2459 -11 c0 -5 -2 -10 -4 -10 -3 0 -8 5 -11 10
-3 6 -1 10 4 10 6 0 11 -4 11 -10z m7398 -25 c-3 -3 -9 2 -12 12 -6 14 -5 15
5 6 7 -7 10 -15 7 -18z m-7373 -24 c3 -5 1 -12 -5 -16 -5 -3 -10 1 -10 9 0 18
6 21 15 7z m2445 -11 c0 -5 -4 -10 -10 -10 -5 0 -10 5 -10 10 0 6 5 10 10 10
6 0 10 -4 10 -10z m-1400 -45 c0 -9 -7 -18 -16 -22 -20 -7 -38 18 -21 29 20
13 37 9 37 -7z m3399 -49 c15 -8 34 -22 42 -32 12 -15 11 -16 -21 -9 -48 10
-92 34 -85 45 9 14 32 12 64 -4z m-7059 -143 c-15 -179 -31 -246 -24 -103 3
58 9 134 14 170 5 36 10 69 10 74 0 5 3 7 6 3 4 -3 1 -68 -6 -144z m4751 -100
c-8 -15 -10 -15 -11 -2 0 17 10 32 18 25 2 -3 -1 -13 -7 -23z m164 8 c8 -14
-15 -25 -27 -13 -6 6 -17 8 -24 5 -8 -3 -14 0 -14 6 0 13 56 15 65 2z m245 -9
c0 -4 -10 -8 -22 -9 -13 -1 -38 -5 -56 -8 -18 -3 -38 -2 -45 2 -7 5 10 10 43
14 30 3 61 6 68 7 6 1 12 -2 12 -6z m-5279 -25 c-10 -9 -11 -8 -5 6 3 10 9 15
12 12 3 -3 0 -11 -7 -18z m5104 2 c-22 -4 -53 -8 -70 -8 -26 0 -27 2 -10 9 11
5 43 8 70 8 l50 0 -40 -9z m-120 -9 c4 -6 -7 -10 -27 -9 -27 0 -30 2 -13 9 27
12 33 12 40 0z m-1455 -14 c0 -43 -40 -62 -68 -34 -10 10 -5 16 20 30 41 21
48 22 48 4z m-3544 -48 c-6 -26 -15 -50 -19 -54 -10 -11 -9 33 2 54 5 9 12 26
16 36 11 38 13 10 1 -36z m3244 2 c0 -5 -7 -10 -15 -10 -8 0 -15 5 -15 10 0 6
7 10 15 10 8 0 15 -4 15 -10z m140 -25 c-13 -16 -40 -20 -40 -7 0 14 12 22 33
22 16 0 17 -3 7 -15z m-3270 -5 c0 -5 -4 -10 -10 -10 -5 0 -10 5 -10 10 0 6 5
10 10 10 6 0 10 -4 10 -10z m9910 -21 c0 -23 -16 -25 -24 -3 -10 25 -7 34 9
28 8 -4 15 -15 15 -25z m-9920 -50 c0 -24 -4 -38 -10 -34 -5 3 -10 2 -10 -4 0
-5 5 -11 12 -13 16 -6 2 -38 -16 -38 -11 0 -12 7 -5 38 5 20 12 49 15 65 9 38
14 34 14 -14z m9645 -29 c-4 -11 -2 -20 4 -20 6 0 8 -7 5 -15 -4 -8 -1 -15 6
-15 9 0 7 -7 -5 -20 -10 -11 -28 -20 -41 -20 -30 0 -29 34 3 78 27 37 37 41
28 12z m-233 -83 c9 -15 0 -27 -21 -27 -23 0 -45 25 -36 40 8 12 46 3 57 -13z
m97 -83 c-9 -11 -15 -12 -23 -4 -8 8 -7 13 4 20 20 12 33 1 19 -16z m-59 -10
c0 -8 -4 -12 -10 -9 -5 3 -10 10 -10 16 0 5 5 9 10 9 6 0 10 -7 10 -16z
m-5740 2 c0 -3 -4 -8 -10 -11 -5 -3 -10 -1 -10 4 0 6 5 11 10 11 6 0 10 -2 10
-4z m5545 -6 c-3 -5 -13 -10 -21 -10 -8 0 -12 5 -9 10 3 6 13 10 21 10 8 0 12
-4 9 -10z m31 -366 c2 -38 7 -82 10 -99 2 -16 6 -43 8 -60 2 -16 9 -64 15
-105 10 -65 15 -122 25 -277 1 -18 4 -34 7 -37 3 -3 4 -35 3 -70 -2 -36 1 -68
6 -71 5 -3 6 -15 1 -27 -4 -12 -3 -49 3 -82 7 -38 11 -186 11 -383 0 -177 3
-319 7 -317 5 3 8 0 8 -5 0 -6 -4 -11 -8 -11 -4 0 -13 -22 -18 -49 -6 -28 -6
-48 -2 -45 11 7 -1 -47 -14 -63 -5 -6 -7 -32 -5 -57 3 -26 1 -48 -3 -51 -4 -3
-11 -26 -15 -52 -4 -27 -10 -42 -12 -35 -5 14 -23 17 -23 3 0 -5 13 -14 30
-21 16 -7 35 -19 42 -28 12 -14 10 -14 -11 -2 -21 11 -26 10 -38 -6 -7 -10
-11 -26 -7 -36 4 -13 0 -18 -14 -18 -18 0 -37 -31 -33 -54 1 -5 -6 -5 -16 -1
-35 15 -93 15 -93 -1 0 -7 -7 -14 -15 -14 -7 0 -19 -8 -24 -17 -17 -29 -13 2
13 107 13 52 31 140 40 195 9 55 20 118 25 140 5 22 7 43 5 47 -9 15 -24 -3
-24 -28 0 -13 -4 -24 -10 -24 -5 0 -10 -6 -10 -14 0 -20 -23 -26 -38 -10 -10
12 -10 14 3 14 23 0 18 18 -7 23 l-23 4 23 8 c19 6 20 10 10 23 -11 13 -10 14
2 10 8 -2 15 -13 15 -24 0 -20 19 -22 21 -1 2 26 16 46 29 41 15 -6 20 14 30
126 4 36 8 83 10 105 6 50 17 216 19 270 0 22 7 45 15 51 9 7 10 13 4 17 -6 4
-8 22 -4 44 8 44 7 90 -2 99 -4 4 -4 12 0 17 4 6 8 40 10 76 1 36 5 94 7 127
3 34 3 64 0 67 -4 4 -7 411 -3 462 1 11 -2 55 -6 97 -6 69 -1 108 11 95 3 -3
7 -36 10 -73z m1064 -18 c0 -3 -4 -8 -10 -11 -5 -3 -10 -1 -10 4 0 6 5 11 10
11 6 0 10 -2 10 -4z m-10333 -122 c-3 -3 -12 -4 -19 -1 -8 3 -5 6 6 6 11 1 17
-2 13 -5z m6127 -133 c14 -15 35 -20 98 -23 57 -2 83 -7 86 -17 2 -7 15 -23
28 -34 13 -11 24 -28 24 -38 0 -22 -80 -32 -195 -25 -68 4 -82 9 -97 28 -29
37 -27 84 4 111 26 22 31 21 52 -2z m-6114 -73 c0 -18 -2 -20 -9 -8 -6 8 -7
18 -5 22 9 14 14 9 14 -14z m6870 -77 c-12 -24 -49 -51 -68 -51 -7 0 -20 6
-27 14 -12 12 -12 15 3 19 9 3 35 13 57 21 22 8 41 15 43 16 1 0 -2 -9 -8 -19z
m-131 -20 c8 -14 7 -20 -5 -25 -9 -3 -12 -2 -9 5 4 6 0 9 -11 7 -11 -2 -20 4
-22 15 -5 24 34 23 47 -2z m3685 -26 c-4 -8 -7 -15 -9 -15 -2 0 -5 7 -9 15 -3
9 0 15 9 15 9 0 12 -6 9 -15z m-4164 -5 c0 -5 -4 -10 -10 -10 -5 0 -10 5 -10
10 0 6 5 10 10 10 6 0 10 -4 10 -10z m4210 -10 c0 -11 -4 -20 -10 -20 -5 0
-10 9 -10 20 0 11 5 20 10 20 6 0 10 -9 10 -20z m-10485 -10 c3 -5 1 -10 -4
-10 -6 0 -11 5 -11 10 0 6 2 10 4 10 3 0 8 -4 11 -10z m4775 -69 c0 -4 -9 -7
-20 -7 -11 0 -20 7 -20 15 0 11 -4 10 -14 -5 -28 -37 18 -59 62 -28 12 8 22
12 21 7 -3 -19 2 -22 25 -13 20 7 25 5 30 -14 6 -23 71 -94 125 -137 17 -13
31 -32 31 -41 0 -10 6 -18 13 -18 19 0 50 -37 42 -49 -3 -6 -1 -11 4 -11 6 0
12 -21 12 -47 1 -27 3 -40 6 -30 3 12 10 16 20 13 8 -3 26 -9 39 -12 20 -5 24
-12 24 -45 0 -35 -7 -44 -31 -41 -4 1 -5 -8 -2 -19 4 -14 8 -17 13 -9 12 19
23 -6 14 -33 -3 -12 -3 -19 1 -15 4 3 20 2 36 -4 21 -7 29 -16 29 -33 0 -13
10 -31 22 -39 12 -9 18 -16 12 -16 -5 0 -15 5 -22 12 -12 12 -13 10 -16 -12 0
-5 -4 -9 -7 -7 -11 3 -49 -35 -49 -48 0 -7 -6 -15 -14 -18 -20 -8 -30 -62 -16
-87 10 -19 17 -21 67 -14 l56 7 -7 -27 c-4 -18 1 -41 18 -73 27 -55 121 -157
135 -148 6 3 15 -3 20 -14 6 -10 23 -22 38 -26 16 -4 22 -10 16 -12 -18 -6
-16 -32 2 -39 8 -3 17 -14 20 -23 4 -13 19 -17 72 -19 70 -3 98 -15 88 -40 -3
-7 -2 -19 2 -25 4 -7 8 -18 9 -25 3 -20 25 -42 40 -42 8 0 14 -7 14 -15 0 -8
-7 -15 -16 -15 -9 0 -14 -6 -11 -12 2 -7 14 -12 26 -11 23 3 29 -12 9 -20 -9
-3 -4 -11 12 -25 18 -14 34 -19 57 -15 30 5 32 3 38 -31 9 -48 1 -65 -35 -78
-20 -6 -30 -16 -29 -27 2 -9 -1 -35 -5 -58 -7 -41 -16 -48 -53 -44 -6 1 -14
-3 -18 -9 -3 -5 -21 -10 -39 -10 -40 0 -71 -21 -63 -44 5 -13 -1 -16 -37 -16
-26 0 -47 -5 -50 -12 -5 -10 -7 -10 -12 0 -5 10 -9 10 -20 1 -9 -7 -38 -9 -86
-5 -120 9 -134 12 -159 29 -13 9 -32 17 -42 17 -18 0 -76 27 -87 41 -3 3 -27
14 -55 25 -27 10 -63 26 -80 35 -16 9 -41 20 -54 24 -14 4 -34 16 -45 27 -12
10 -29 17 -38 15 -10 -3 -16 -1 -15 3 1 4 -2 8 -7 8 -5 0 -12 4 -15 9 -3 5
-25 17 -48 27 -23 10 -41 22 -38 26 2 3 -13 12 -33 20 -45 16 -253 159 -292
200 -3 3 -26 23 -52 43 -53 44 -60 62 -49 137 5 30 9 47 10 38 2 -31 18 -27
18 4 0 18 5 34 11 36 7 2 12 9 12 17 0 7 7 18 15 25 12 10 13 16 3 27 -9 11
-9 16 1 23 8 4 17 31 22 60 9 60 16 71 29 50 7 -11 10 -6 10 20 1 36 22 75 34
63 4 -4 4 0 1 9 -4 10 16 64 49 134 31 64 56 120 56 124 0 4 14 41 30 81 51
123 102 282 102 314 -1 17 6 40 14 52 12 20 17 21 39 11 14 -6 25 -14 25 -17z
m30 9 c0 -5 -2 -10 -4 -10 -3 0 -8 5 -11 10 -3 6 -1 10 4 10 6 0 11 -4 11 -10z
m4280 -80 c0 -5 -2 -10 -4 -10 -3 0 -8 5 -11 10 -3 6 -1 10 4 10 6 0 11 -4 11
-10z m-53 -42 c-3 -7 -5 -2 -5 12 0 14 2 19 5 13 2 -7 2 -19 0 -25z m43 2 c0
-5 -2 -10 -4 -10 -3 0 -8 5 -11 10 -3 6 -1 10 4 10 6 0 11 -4 11 -10z m20 -46
c0 -3 -9 -2 -21 1 -18 6 -20 4 -14 -14 4 -12 2 -21 -4 -21 -6 0 -11 -7 -11
-15 0 -8 -4 -15 -9 -15 -6 0 -6 13 0 33 6 17 13 38 15 45 3 10 9 10 24 2 11
-6 20 -13 20 -16z m-5544 -59 c4 -8 0 -22 -7 -31 -11 -13 -14 -13 -27 0 -17
17 -9 46 13 46 9 0 18 -7 21 -15z m5454 0 c0 -8 -4 -15 -10 -15 -5 0 -7 7 -4
15 4 8 8 15 10 15 2 0 4 -7 4 -15z m74 6 c4 -5 0 -11 -6 -14 -10 -3 -10 -7 1
-20 14 -18 5 -22 -16 -9 -7 4 -10 17 -6 30 6 23 18 29 27 13z m-93 -68 c-10
-17 -10 -16 -11 3 0 23 13 41 18 25 2 -6 -1 -18 -7 -28z m52 8 c-2 -11 2 -21
7 -21 6 0 10 5 10 10 0 7 6 7 18 2 9 -5 23 -7 31 -4 11 4 13 -3 8 -33 -9 -58
-87 -119 -87 -69 0 8 -6 11 -15 8 -18 -7 -20 -24 -2 -24 6 0 21 -7 32 -16 17
-12 18 -18 7 -34 -11 -18 -10 -21 18 -26 16 -4 27 -11 24 -16 -3 -5 -12 -7
-20 -4 -8 3 -14 -1 -14 -9 0 -9 -10 -15 -24 -15 -14 0 -28 -5 -32 -11 -4 -8
-9 -7 -16 2 -8 11 -9 11 -5 -1 2 -8 -3 -20 -12 -27 -10 -8 -11 -12 -4 -13 6 0
15 5 18 10 3 6 11 10 17 10 6 0 3 -9 -7 -20 -19 -21 -7 -28 13 -8 10 10 15 10
22 -1 7 -12 11 -12 24 -2 11 9 16 10 16 2 0 -6 -4 -11 -9 -11 -5 0 -11 -9 -14
-20 -3 -13 0 -20 9 -20 8 0 14 -5 14 -11 0 -6 -9 -8 -22 -4 -18 6 -20 4 -14
-11 9 -22 9 -23 7 -47 -1 -13 -6 -17 -20 -12 -14 4 -21 0 -24 -12 -3 -14 -6
-12 -11 10 -12 40 -21 33 -22 -18 -1 -37 1 -42 11 -28 7 9 17 13 23 9 16 -10
15 -26 0 -26 -17 0 -17 -72 0 -78 7 -2 20 2 29 10 15 11 16 11 10 -5 -4 -10
-7 -22 -7 -27 0 -5 -10 -12 -22 -16 -13 -4 -30 -15 -39 -25 -12 -14 -24 -17
-48 -13 -29 6 -44 24 -19 24 6 0 9 3 5 6 -13 14 -43 -22 -42 -53 0 -29 -1 -30
-16 -15 -19 21 -31 52 -20 52 5 0 8 10 7 23 -1 12 5 27 13 33 13 10 13 14 2
28 -10 11 -10 16 -2 16 7 0 9 4 6 10 -3 5 2 24 10 41 9 17 15 39 12 49 -2 10
-1 24 4 31 7 11 9 11 9 1 0 -7 5 -10 10 -7 16 10 12 22 -11 28 -18 5 -19 8 -9
28 10 17 14 19 22 8 6 -9 7 -3 3 21 -5 26 -4 31 4 20 8 -12 11 -6 11 23 0 20
4 45 10 55 5 9 21 52 36 94 24 69 28 76 45 67 11 -6 19 -6 19 0 0 5 -8 12 -17
15 -31 12 2 25 45 17 23 -5 42 -4 42 0 0 5 -6 10 -12 10 -7 1 -20 3 -28 4 -8
1 -21 3 -27 4 -7 0 -13 15 -13 32 0 20 4 29 13 26 6 -2 11 -14 10 -26z m-6160
-10 c4 -15 -2 -20 -26 -25 -17 -3 -34 -3 -38 1 -15 15 33 57 52 47 4 -2 9 -12
12 -23z m6088 -48 c-12 -20 -14 -14 -5 12 4 9 9 14 11 11 3 -2 0 -13 -6 -23z
m-6091 8 c0 -6 -4 -13 -10 -16 -5 -3 -10 1 -10 9 0 9 5 16 10 16 6 0 10 -4 10
-9z m3130 -76 c0 -8 -7 -15 -15 -15 -8 0 -15 7 -15 15 0 8 7 15 15 15 8 0 15
-7 15 -15z m3100 -12 c-1 -20 -27 -59 -35 -52 -7 7 18 69 27 69 4 0 8 -8 8
-17z m-9020 3 c0 -3 -4 -8 -10 -11 -5 -3 -10 -1 -10 4 0 6 5 11 10 11 6 0 10
-2 10 -4z m9040 -51 c0 -2 -6 -5 -13 -8 -8 -3 -14 1 -14 8 0 7 6 11 14 8 7 -3
13 -6 13 -8z m-30 -65 c0 -5 -7 -10 -16 -10 -8 0 -12 5 -9 10 3 6 10 10 16 10
5 0 9 -4 9 -10z m-9003 -59 c-2 -52 -17 -48 -17 5 0 27 6 44 16 44 2 0 2 -22
1 -49z m8973 35 c0 -2 -7 -6 -15 -10 -8 -3 -15 -1 -15 4 0 6 7 10 15 10 8 0
15 -2 15 -4z m20 -66 c0 -5 -5 -10 -11 -10 -5 0 -7 5 -4 10 3 6 8 10 11 10 2
0 4 -4 4 -10z m-3772 -37 c-10 -2 -28 -2 -40 0 -13 2 -5 4 17 4 22 1 32 -1 23
-4z m-5211 -133 c-2 -8 -8 6 -14 32 -6 26 -8 60 -5 75 5 22 8 16 14 -32 5 -33
7 -67 5 -75z m8948 -10 c3 -5 1 -10 -4 -10 -6 0 -11 5 -11 10 0 6 2 10 4 10 3
0 8 -4 11 -10z m105 -10 c0 -5 -2 -10 -4 -10 -3 0 -8 5 -11 10 -3 6 -1 10 4
10 6 0 11 -4 11 -10z m-122 -18 c2 -7 -2 -10 -12 -6 -9 3 -16 11 -16 16 0 13
23 5 28 -10z m-8915 -18 c-4 -10 -9 -12 -15 -6 -12 12 -1 35 12 27 5 -3 6 -13
3 -21z m9377 6 c0 -5 -7 -10 -16 -10 -8 0 -12 5 -9 10 3 6 10 10 16 10 5 0 9
-4 9 -10z m-335 -10 c13 -6 15 -9 5 -9 -12 -1 -13 -3 -1 -10 7 -5 10 -14 7
-20 -5 -8 -11 -7 -20 2 -8 6 -12 16 -9 21 3 4 -1 12 -8 17 -18 11 0 10 26 -1z
m-2387 -57 c-5 -26 -38 -29 -38 -4 0 15 6 21 21 21 14 0 19 -5 17 -17z m2332
-3 c0 -5 -2 -10 -4 -10 -3 0 -8 5 -11 10 -3 6 -1 10 4 10 6 0 11 -4 11 -10z
m61 0 c5 0 9 -4 9 -9 0 -5 -8 -8 -17 -7 -24 2 -29 -35 -7 -51 23 -17 16 -22
-24 -16 -30 5 -31 7 -15 19 16 12 16 15 3 24 -12 7 -12 10 -1 10 7 0 11 6 8
14 -7 18 3 28 21 21 7 -3 18 -5 23 -5z m-4807 -32 c7 -5 4 -8 -6 -8 -12 0 -18
7 -17 23 0 15 2 17 6 7 3 -8 11 -18 17 -22z m1919 -5 c-7 -2 -13 -13 -13 -24
0 -21 -16 -26 -23 -6 -3 6 -6 -5 -6 -25 -1 -40 -4 -42 -36 -27 -18 9 -18 9 3
5 19 -4 23 -1 20 17 -2 14 -11 23 -25 25 -32 5 -28 16 10 29 32 10 94 16 70 6z
m2727 -3 c0 -5 -2 -10 -4 -10 -3 0 -8 5 -11 10 -3 6 -1 10 4 10 6 0 11 -4 11
-10z m160 0 c0 -5 -5 -10 -11 -10 -5 0 -7 5 -4 10 3 6 8 10 11 10 2 0 4 -4 4
-10z m-262 -21 c-2 -6 -8 -10 -13 -10 -5 0 -11 4 -13 10 -2 6 4 11 13 11 9 0
15 -5 13 -11z m-74 -45 c-13 -11 -15 -17 -6 -20 6 -3 12 -13 12 -22 0 -13 -5
-11 -19 7 -22 29 -17 51 12 51 20 0 21 0 1 -16z m121 -13 c-6 -5 -25 10 -25
20 0 5 6 4 14 -3 8 -7 12 -15 11 -17z m183 4 c-3 -3 -13 -2 -22 1 -14 5 -15 9
-4 15 13 8 36 -6 26 -16z m-238 -25 c12 -12 15 -20 8 -20 -15 1 -48 24 -48 34
0 12 21 5 40 -14z m180 -14 c0 -2 -7 -7 -16 -10 -8 -3 -12 -2 -9 4 6 10 25 14
25 6z m-212 -31 c-3 -3 -9 2 -12 12 -6 14 -5 15 5 6 7 -7 10 -15 7 -18z
m-8626 -27 c-9 -9 -12 -7 -12 12 0 19 3 21 12 12 9 -9 9 -15 0 -24z m8543 22
c3 -5 1 -10 -4 -10 -6 0 -11 5 -11 10 0 6 2 10 4 10 3 0 8 -4 11 -10z m55 -4
c0 -2 -7 -7 -16 -10 -8 -3 -12 -2 -9 4 6 10 25 14 25 6z m2 -38 c-7 -7 -12 -8
-12 -2 0 14 12 26 19 19 2 -3 -1 -11 -7 -17z m215 6 c-3 -3 -12 -4 -19 -1 -8
3 -5 6 6 6 11 1 17 -2 13 -5z m-8612 -14 c3 -5 1 -10 -4 -10 -6 0 -11 5 -11
10 0 6 2 10 4 10 3 0 8 -4 11 -10z m8660 0 c3 -5 -1 -10 -9 -10 -9 0 -16 5
-16 10 0 6 4 10 9 10 6 0 13 -4 16 -10z m-8948 -22 c-3 -8 -6 -5 -6 6 -1 11 2
17 5 13 3 -3 4 -12 1 -19z m8893 2 c-19 -12 -30 -12 -30 -1 0 10 31 20 40 14
2 -2 -2 -8 -10 -13z m83 -55 c-2 -8 -13 -17 -22 -20 -21 -6 -21 -43 -1 -55 8
-5 11 -13 6 -17 -5 -4 -11 -3 -13 4 -2 7 -11 9 -19 6 -8 -3 -14 0 -14 7 0 6
-5 8 -11 4 -19 -11 -59 17 -59 43 0 13 5 23 11 23 6 0 9 -6 6 -14 -9 -22 24
-44 53 -37 18 5 21 9 11 15 -11 7 -11 10 0 17 11 7 10 11 -5 22 -13 9 -15 16
-8 21 6 4 9 13 5 21 -6 17 -2 18 21 9 11 -4 14 -13 10 -30 -4 -15 -2 -24 5
-24 6 0 11 17 12 38 1 36 1 36 9 9 5 -16 6 -35 3 -42z m-8657 31 c8 -8 12 -21
9 -28 -3 -8 9 -26 30 -42 27 -22 34 -34 29 -49 -4 -14 -3 -17 6 -12 8 5 18 1
26 -10 11 -15 11 -23 -2 -46 -16 -33 -34 -38 -34 -11 0 10 -5 23 -12 30 -9 9
-8 12 7 12 17 1 16 4 -9 26 -15 14 -26 28 -22 31 3 3 -5 19 -19 35 -13 16 -22
35 -19 43 4 8 1 15 -5 15 -6 0 -11 5 -11 10 0 14 9 12 26 -4z m8569 -6 c-3 -5
-12 -10 -18 -10 -7 0 -6 4 3 10 19 12 23 12 15 0z m10 -60 c3 -5 1 -10 -4 -10
-6 0 -11 5 -11 10 0 6 2 10 4 10 3 0 8 -4 11 -10z m-8865 -57 c0 -7 -4 -13
-10 -13 -5 0 -10 12 -10 28 0 21 2 24 10 12 5 -8 10 -21 10 -27z m8827 11 c-3
-3 -12 -4 -19 -1 -8 3 -5 6 6 6 11 1 17 -2 13 -5z m84 -32 c2 2 1 -1 -3 -6 -3
-5 -4 -14 -2 -21 3 -7 1 -16 -4 -19 -11 -7 -62 17 -72 35 -10 16 -33 1 -26
-17 3 -8 -1 -14 -10 -14 -12 0 -13 4 -3 23 17 32 31 38 46 19 11 -16 12 -16
13 0 0 22 21 28 41 12 9 -8 18 -13 20 -12z m249 -3 c0 -6 -4 -7 -10 -4 -5 3
-10 11 -10 16 0 6 5 7 10 4 6 -3 10 -11 10 -16z m-8970 -3 c0 -3 -4 -8 -10
-11 -5 -3 -10 -1 -10 4 0 6 5 11 10 11 6 0 10 -2 10 -4z m8688 -64 c4 -14 -14
-16 -23 -2 -3 6 -15 10 -26 10 -11 0 -18 4 -15 9 8 12 59 -2 64 -17z m-8449
-37 c6 -3 11 -14 11 -23 -1 -12 -4 -10 -14 7 -13 23 -14 23 -18 5 -4 -16 -7
-15 -17 10 -9 23 -9 31 1 37 8 5 15 2 20 -10 4 -11 11 -22 17 -26z m8363 33
c-17 -17 -15 -28 4 -21 14 5 15 3 5 -15 -7 -12 -14 -22 -17 -22 -3 0 -2 5 1
10 3 6 1 10 -4 10 -12 0 -15 33 -4 43 3 4 11 7 17 7 6 0 5 -5 -2 -12z m118 -8
c0 -5 -4 -10 -10 -10 -5 0 -10 5 -10 10 0 6 5 10 10 10 6 0 10 -4 10 -10z
m230 2 c0 -13 -12 -22 -22 -16 -10 6 -1 24 13 24 5 0 9 -4 9 -8z m-279 -19
c12 -15 12 -16 -4 -10 -10 4 -23 7 -28 7 -5 0 -9 5 -9 10 0 16 26 12 41 -7z
m-2701 -13 c0 -5 -5 -10 -11 -10 -5 0 -7 5 -4 10 3 6 8 10 11 10 2 0 4 -4 4
-10z m2740 0 c0 -5 -5 -10 -11 -10 -5 0 -7 5 -4 10 3 6 8 10 11 10 2 0 4 -4 4
-10z m-21 -27 c11 -12 10 -18 -10 -39 -21 -22 -25 -23 -35 -10 -6 9 -14 13
-18 9 -3 -3 1 -15 11 -25 19 -21 6 -24 -20 -4 -16 13 -16 15 3 37 17 21 21 22
30 9 8 -13 10 -13 10 3 0 10 -8 17 -20 17 -19 0 -26 11 -14 22 8 9 47 -4 63
-19z m-8847 -11 c3 -11 0 -19 -8 -19 -16 0 -16 0 -8 21 8 21 11 20 16 -2z
m8738 14 c0 -3 -4 -8 -10 -11 -5 -3 -10 -1 -10 4 0 6 5 11 10 11 6 0 10 -2 10
-4z m25 -25 c-3 -6 -11 -11 -17 -11 -6 0 -6 6 2 15 14 17 26 13 15 -4z m-8345
-1 c0 -5 -5 -10 -11 -10 -5 0 -7 5 -4 10 3 6 8 10 11 10 2 0 4 -4 4 -10z
m5667 -22 c-3 -8 -6 -5 -6 6 -1 11 2 17 5 13 3 -3 4 -12 1 -19z m2923 2 c0
-12 -8 -12 -35 0 -18 8 -17 9 8 9 15 1 27 -3 27 -9z m-8474 -40 c1 -35 -12
-40 -21 -9 -5 14 -2 25 6 30 8 5 14 9 14 9 0 0 0 -14 1 -30z m5529 10 c3 -5 1
-10 -4 -10 -6 0 -11 5 -11 10 0 6 2 10 4 10 3 0 8 -4 11 -10z m2982 4 c-3 -3
-12 -4 -19 -1 -8 3 -5 6 6 6 11 1 17 -2 13 -5z m1053 -18 c0 -7 -7 -19 -15
-26 -16 -13 -20 -3 -9 24 8 20 24 21 24 2z m-1316 -17 c-3 -5 -10 -7 -15 -4
-5 4 -9 -1 -9 -9 0 -9 -4 -16 -10 -16 -5 0 -7 7 -4 15 4 10 0 15 -12 16 -14 1
-12 3 6 8 29 9 52 3 44 -10z m-74 1 c0 -5 -5 -10 -11 -10 -5 0 -7 5 -4 10 3 6
8 10 11 10 2 0 4 -4 4 -10z m-8140 -11 c0 -8 4 -8 14 0 27 23 23 -11 -4 -38
-14 -14 -24 -25 -22 -24 12 6 42 -20 42 -35 0 -15 2 -15 10 -2 7 10 6 18 -3
25 -14 11 -11 45 4 45 5 0 9 -4 9 -10 0 -5 6 -10 14 -10 13 0 27 -22 24 -38
-1 -4 11 -9 27 -12 24 -4 31 -12 40 -45 5 -23 20 -55 33 -72 24 -33 28 -53 12
-53 -5 0 -10 8 -10 19 0 18 -26 48 -35 39 -2 -2 2 -17 10 -32 8 -16 15 -35 15
-42 0 -17 27 -19 33 -1 2 6 8 9 12 4 5 -4 3 -13 -3 -19 -21 -21 -13 -37 21
-47 17 -5 26 -10 20 -10 -7 -1 -13 -10 -13 -21 0 -27 -16 -26 -23 1 -4 14 -11
20 -20 16 -10 -4 -13 0 -10 12 3 12 -6 21 -32 31 -20 8 -41 23 -47 34 -8 15
-12 16 -20 5 -8 -11 -9 -11 -5 2 3 8 -1 26 -9 40 -7 13 -13 27 -14 32 0 10 27
9 32 -1 2 -4 13 -3 25 3 21 11 21 13 7 33 -9 13 -21 19 -31 15 -14 -5 -13 -8
6 -15 12 -4 20 -12 16 -18 -4 -6 -13 -5 -26 3 -17 10 -22 9 -33 -5 -7 -9 -17
-14 -22 -10 -18 13 -67 82 -61 88 3 3 15 -8 27 -24 13 -17 28 -28 36 -25 21 8
17 23 -5 23 -12 0 -24 12 -32 29 -10 21 -17 27 -25 20 -9 -7 -12 2 -12 38 0
26 3 51 5 56 6 11 23 8 23 -4z m-65 -9 c3 -5 2 -10 -4 -10 -5 0 -13 5 -16 10
-3 6 -2 10 4 10 5 0 13 -4 16 -10z m130 0 c3 -5 1 -10 -4 -10 -6 0 -11 5 -11
10 0 6 2 10 4 10 3 0 8 -4 11 -10z m8065 -10 c0 -5 -4 -10 -10 -10 -5 0 -10 5
-10 10 0 6 5 10 10 10 6 0 10 -4 10 -10z m105 -10 c3 -5 1 -10 -4 -10 -6 0
-11 5 -11 10 0 6 2 10 4 10 3 0 8 -4 11 -10z m-8280 -20 c3 -5 -1 -10 -9 -10
-8 0 -18 5 -21 10 -3 6 1 10 9 10 8 0 18 -4 21 -10z m9565 -40 c0 -11 -2 -20
-5 -20 -2 0 -9 9 -15 20 -9 16 -8 20 5 20 8 0 15 -9 15 -20z m-9570 -6 c0 -8
-5 -12 -10 -9 -6 4 -8 11 -5 16 9 14 15 11 15 -7z m7734 -98 c-4 -11 -8 -37
-10 -56 -1 -19 -2 -40 -3 -47 -1 -7 -12 -24 -26 -39 -14 -15 -25 -33 -25 -40
0 -8 -5 -14 -11 -14 -7 0 -8 -12 -4 -32 5 -30 5 -32 -9 -15 -14 18 -16 15 -30
-34 -19 -63 -19 -57 -1 -61 11 -2 0 -18 -34 -53 -27 -27 -52 -60 -55 -72 -5
-16 -11 -20 -27 -16 -19 5 -20 3 -14 -18 7 -21 6 -22 -9 -10 -21 18 -33 6 -15
-15 12 -15 11 -16 -9 -10 -18 6 -28 2 -45 -17 -24 -27 -72 -43 -82 -27 -3 5
-11 10 -17 10 -6 0 -5 -7 3 -17 11 -13 11 -17 2 -20 -7 -3 -13 -11 -13 -19 0
-9 -4 -12 -10 -9 -5 3 -10 2 -10 -3 0 -5 -9 -12 -19 -15 -17 -4 -18 -1 -11 24
7 23 5 29 -11 34 -11 4 -17 11 -14 16 4 5 14 5 25 -1 16 -8 22 -6 32 10 14 22
34 26 40 8 6 -17 28 0 28 23 0 20 -16 26 -22 8 -4 -12 -38 -1 -38 13 0 6 7 8
15 4 8 -3 15 -1 15 3 0 5 -6 12 -12 14 -7 3 -2 6 12 7 14 1 19 4 13 7 -7 2
-13 9 -13 15 0 6 7 8 15 4 8 -3 15 -1 15 3 0 5 -6 12 -12 14 -8 3 -6 6 5 6 13
1 16 7 13 27 -5 28 20 46 34 24 4 -7 12 -10 18 -6 6 4 8 -2 5 -15 -3 -11 -11
-18 -18 -15 -8 3 -16 -6 -20 -22 -4 -15 -11 -30 -17 -33 -7 -4 -8 -14 -3 -25
5 -11 9 -22 9 -26 1 -5 5 -8 11 -9 10 -1 61 116 109 251 16 46 40 91 62 115
20 22 52 64 71 93 19 28 38 52 43 52 7 0 23 37 22 51 -1 3 13 3 29 1 25 -4 29
-8 23 -26z m1768 12 c-7 -7 -12 -8 -12 -2 0 14 12 26 19 19 2 -3 -1 -11 -7
-17z m10 -38 c10 -10 13 -22 9 -25 -5 -2 -16 6 -25 20 -20 30 -8 33 16 5z
m-1352 -52 c0 -5 -7 -3 -15 6 -8 8 -15 18 -15 22 0 3 7 1 15 -6 8 -7 15 -17
15 -22z m180 -12 c0 -2 -9 -6 -20 -9 -11 -3 -20 -1 -20 4 0 5 9 9 20 9 11 0
20 -2 20 -4z m-221 -40 c7 -8 8 -17 3 -19 -4 -3 -13 3 -20 14 -14 22 0 26 17
5z m1451 4 c0 -5 -4 -10 -10 -10 -5 0 -10 5 -10 10 0 6 5 10 10 10 6 0 10 -4
10 -10z m-26 -52 c-5 -8 -10 -5 -14 8 -10 25 0 41 12 20 5 -9 6 -21 2 -28z
m-1434 7 c6 -8 10 -20 8 -26 -2 -6 -12 0 -21 15 -18 27 -8 37 13 11z m1362
-15 c-2 -16 -6 -30 -8 -30 -2 0 -4 14 -4 30 0 17 4 30 8 30 5 0 7 -13 4 -30z
m-9748 -15 c3 -8 1 -15 -4 -15 -6 0 -10 7 -10 15 0 8 2 15 4 15 2 0 6 -7 10
-15z m8365 -3 c11 -21 4 -62 -11 -62 -5 0 -6 -4 -3 -10 3 -5 3 -15 -1 -21 -10
-17 -24 12 -17 38 3 14 1 23 -6 23 -6 0 -11 -7 -11 -15 0 -8 -5 -15 -11 -15
-6 0 -8 7 -5 16 4 9 1 23 -5 30 -8 10 -8 14 0 14 6 0 11 -5 11 -11 0 -6 7 -9
15 -5 8 3 15 1 15 -4 0 -6 5 -10 10 -10 6 0 10 7 10 15 0 8 -4 15 -10 15 -5 0
-10 5 -10 10 0 17 19 11 29 -8z m-7734 -12 c3 -5 1 -10 -4 -10 -6 0 -11 5 -11
10 0 6 2 10 4 10 3 0 8 -4 11 -10z m7608 -20 c-3 -11 -9 -20 -15 -20 -5 0 -4
9 2 20 6 11 12 20 14 20 2 0 2 -9 -1 -20z m177 3 c-1 -10 -26 -43 -33 -43 -3
0 0 11 6 25 11 23 27 34 27 18z m-140 -23 c0 -11 -7 -20 -15 -20 -13 0 -14 4
-5 20 6 11 13 20 15 20 3 0 5 -9 5 -20z m-8230 -46 c0 -20 -7 -17 -20 6 -9 16
-8 18 5 14 8 -4 15 -12 15 -20z m8280 -6 c0 -4 -5 -10 -10 -13 -6 -4 -8 -10
-5 -15 14 -22 -19 -19 -42 4 -17 17 -21 26 -11 26 8 0 19 -5 25 -11 8 -8 13
-8 18 0 3 6 -1 14 -9 17 -9 3 -13 10 -10 15 5 9 44 -11 44 -23z m-8030 12 c0
-5 -2 -10 -4 -10 -3 0 -8 5 -11 10 -3 6 -1 10 4 10 6 0 11 -4 11 -10z m7930
-44 c0 -3 -4 -8 -10 -11 -5 -3 -10 -1 -10 4 0 6 5 11 10 11 6 0 10 -2 10 -4z
m-8146 -42 c5 -16 2 -23 -12 -26 -15 -4 -17 0 -14 29 4 36 15 34 26 -3z m8190
30 c9 -3 16 -12 16 -20 0 -19 -6 -18 -30 6 -20 20 -15 25 14 14z m-7898 -40
c12 -17 11 -20 -5 -20 -12 0 -17 5 -13 14 3 8 -1 18 -9 24 -12 8 -12 9 0 6 8
-2 20 -13 27 -24z m7834 22 c0 -3 -4 -8 -10 -11 -5 -3 -10 -1 -10 4 0 6 5 11
10 11 6 0 10 -2 10 -4z m54 -25 c17 -18 16 -21 -8 -60 -27 -43 -57 -59 -34
-18 7 12 11 28 10 35 -2 6 2 12 8 12 5 0 10 7 10 15 0 8 -7 15 -15 15 -8 0
-15 5 -15 10 0 17 26 11 44 -9z m997 -17 c-11 -15 -21 -21 -21 -14 0 15 31 52
38 46 2 -3 -5 -17 -17 -32z m-8941 5 c0 -14 -17 -10 -23 5 -4 10 -1 13 9 9 7
-3 14 -9 14 -14z m7820 11 c0 -5 -5 -10 -11 -10 -5 0 -7 5 -4 10 3 6 8 10 11
10 2 0 4 -4 4 -10z m179 -24 c-7 -14 -16 -26 -21 -26 -12 0 -10 8 8 36 21 31
29 25 13 -10z m987 8 c-4 -9 -9 -15 -11 -12 -3 3 -3 13 1 22 4 9 9 15 11 12 3
-3 3 -13 -1 -22z m-1076 -3 c0 -5 -8 -12 -17 -15 -15 -6 -15 -8 -3 -16 18 -11
8 -22 -13 -14 -15 5 -15 8 0 30 15 24 33 32 33 15z m-8090 -67 c0 -24 -9 -16
-30 29 l-21 42 26 -28 c14 -15 25 -35 25 -43z m257 29 c-12 -13 -15 -13 -14
-2 2 8 7 21 12 29 7 11 10 11 13 1 2 -7 -3 -20 -11 -28z m7778 27 c-3 -5 -11
-10 -16 -10 -6 0 -7 5 -4 10 3 6 11 10 16 10 6 0 7 -4 4 -10z m955 -14 c0 -2
-7 -6 -15 -10 -8 -3 -15 -1 -15 4 0 6 7 10 15 10 8 0 15 -2 15 -4z m-1210 -16
c0 -5 -9 -14 -20 -20 -22 -12 -27 -1 -8 18 14 14 28 16 28 2z m220 0 c0 -5 -5
-10 -11 -10 -5 0 -7 5 -4 10 3 6 8 10 11 10 2 0 4 -4 4 -10z m-300 -4 c0 -3
-4 -8 -10 -11 -5 -3 -10 -1 -10 4 0 6 5 11 10 11 6 0 10 -2 10 -4z m344 -12
c18 -7 22 -34 5 -34 -6 0 -8 -9 -4 -20 9 -28 -7 -25 -36 6 l-24 27 28 -7 c29
-7 35 2 15 22 -13 13 -8 15 16 6z m-7684 -34 c17 0 18 -4 10 -25 -10 -27 -2
-33 18 -13 9 9 12 8 12 -6 0 -14 5 -17 25 -12 19 5 23 3 19 -9 -4 -9 0 -15 9
-15 8 0 18 -10 21 -22 6 -23 7 -23 21 -4 11 14 15 16 15 5 0 -21 -37 -72 -44
-61 -3 6 0 13 6 16 9 3 7 9 -7 20 -11 8 -28 23 -37 32 -11 10 -18 13 -18 6 0
-7 -4 -12 -9 -12 -5 0 -7 10 -4 21 4 16 2 20 -8 17 -8 -3 -14 -15 -13 -27 0
-11 -3 -21 -8 -21 -4 0 -8 6 -8 14 0 8 -5 16 -10 18 -6 2 -12 18 -15 37 -2 18
-12 40 -22 48 -10 8 -12 12 -5 8 6 -3 12 0 12 7 0 8 5 6 11 -4 5 -10 19 -18
29 -18z m8570 20 c0 -5 -5 -10 -11 -10 -5 0 -7 5 -4 10 3 6 8 10 11 10 2 0 4
-4 4 -10z m-8645 -30 c3 -5 1 -10 -4 -10 -6 0 -11 5 -11 10 0 6 2 10 4 10 3 0
8 -4 11 -10z m8755 0 c0 -5 -5 -10 -11 -10 -5 0 -7 5 -4 10 3 6 8 10 11 10 2
0 4 -4 4 -10z m-93 -12 c-2 -7 -11 -12 -19 -10 -9 1 -19 -8 -22 -20 -7 -22 -7
-22 -16 -3 -9 20 -9 20 -15 -1 -4 -12 -22 -28 -41 -38 -53 -25 -61 -19 -23 15
37 33 89 64 89 52 0 -4 5 -2 12 5 16 16 41 15 35 0z m-5597 -26 c0 -20 -28
-45 -44 -39 -19 7 -22 53 -3 60 14 5 47 -10 47 -21z m4340 7 c0 -6 -4 -7 -10
-4 -5 3 -10 -1 -10 -9 0 -8 -13 -24 -30 -36 -16 -12 -30 -28 -30 -36 0 -8 -5
-14 -11 -14 -5 0 -8 4 -5 9 4 5 1 11 -6 13 -7 3 6 17 30 33 23 15 40 30 37 33
-3 3 0 11 6 18 12 14 29 10 29 -7z m329 2 l22 -20 -21 -21 c-16 -16 -24 -19
-30 -10 -5 8 -22 -2 -53 -34 -43 -43 -47 -44 -57 -27 -14 28 -12 35 5 21 21
-17 31 -5 14 16 -13 16 -11 17 14 10 27 -6 39 7 15 18 -7 3 -2 4 11 3 13 -1
26 4 28 11 3 6 0 12 -7 12 -6 0 -8 5 -5 10 4 7 14 2 26 -11 25 -29 37 -17 15
16 -20 30 -8 33 23 6z m68 -8 c-15 -16 -17 -16 -17 -1 0 9 6 18 13 21 20 7 22
-2 4 -20z m-8017 -49 c0 -24 -9 -16 -30 29 l-21 42 26 -28 c14 -15 25 -35 25
-43z m245 48 c-3 -3 -11 0 -18 7 -9 10 -8 11 6 5 10 -3 15 -9 12 -12z m8715
-8 c0 -21 -4 -25 -19 -21 -10 2 -29 -4 -42 -14 -45 -34 -44 -19 1 21 25 22 48
40 53 40 4 0 7 -12 7 -26z m30 5 c0 -6 -4 -7 -10 -4 -5 3 -10 11 -10 16 0 6 5
7 10 4 6 -3 10 -11 10 -16z m-1526 -41 c-3 -4 -12 -8 -20 -8 -8 0 -13 4 -10 8
3 5 12 9 20 9 8 0 13 -4 10 -9z m-164 -28 c0 -5 -9 -6 -20 -3 -11 3 -20 9 -20
13 0 5 9 6 20 3 11 -3 20 -9 20 -13z m396 -6 c-9 -9 -20 -14 -23 -10 -4 3 2
13 13 20 25 18 31 12 10 -10z m-7340 -2 c-3 -2 -1 -13 5 -23 12 -23 6 -24 -15
-3 -21 20 -21 45 -1 37 9 -3 14 -8 11 -11z m7564 8 c0 -5 -4 -10 -10 -10 -5 0
-10 5 -10 10 0 6 5 10 10 10 6 0 10 -4 10 -10z m880 -1 c0 -10 -54 -44 -66
-41 -7 1 -14 -5 -18 -13 -3 -9 -11 -13 -17 -10 -6 4 -21 -3 -34 -15 -13 -12
-28 -19 -34 -16 -6 4 -18 2 -28 -3 -28 -15 -116 -41 -121 -36 -3 2 18 15 46
28 28 13 57 29 64 34 35 29 112 63 119 52 4 -8 13 -5 26 8 18 18 63 26 63 12z
m-845 -9 c-3 -5 -12 -10 -18 -10 -7 0 -6 4 3 10 19 12 23 12 15 0z m1079 -6
c10 -25 -1 -29 -14 -5 -6 12 -7 21 -1 21 5 0 12 -7 15 -16z m259 -24 c-7 -28
-31 -32 -39 -8 -4 15 -1 26 12 35 21 15 34 2 27 -27z m-1783 26 c0 -2 -39 -30
-87 -62 -49 -32 -95 -62 -103 -68 -8 -6 -2 4 14 21 15 17 41 37 57 43 16 7 29
18 29 24 1 17 90 59 90 42z m1377 -2 c-3 -3 -12 -4 -19 -1 -8 3 -5 6 6 6 11 1
17 -2 13 -5z m111 -11 c-1 -10 1 -24 5 -30 5 -9 3 -13 -7 -13 -16 0 -23 40 -9
53 11 11 14 8 11 -10z m-8535 -9 c-5 -14 -2 -16 20 -10 16 4 27 2 27 -4 0 -5
-4 -10 -10 -10 -5 0 -10 -5 -10 -11 0 -6 9 -8 20 -4 22 7 25 -7 14 -64 -8 -40
-17 -39 -30 2 -5 17 -15 31 -22 30 -7 -2 -12 7 -12 21 0 13 -5 26 -12 28 -13
5 -4 38 11 38 6 0 8 -7 4 -16z m6821 1 c-4 -8 -10 -15 -15 -15 -4 0 -6 7 -3
15 4 8 10 15 15 15 4 0 6 -7 3 -15z m301 5 c3 -5 1 -10 -4 -10 -6 0 -11 5 -11
10 0 6 2 10 4 10 3 0 8 -4 11 -10z m300 0 c-3 -5 -10 -10 -16 -10 -5 0 -9 5
-9 10 0 6 7 10 16 10 8 0 12 -4 9 -10z m-89 -14 c9 -9 10 -17 4 -21 -5 -3 -10
-1 -10 4 0 6 -7 11 -15 11 -19 0 -19 -14 0 -30 11 -9 20 -8 44 9 49 36 45 23
-11 -29 -53 -50 -68 -59 -68 -40 0 6 -4 10 -10 10 -5 0 -10 -9 -10 -20 0 -20
-30 -42 -52 -38 -7 2 -17 -7 -22 -18 -12 -26 -62 -58 -76 -49 -6 4 -8 10 -5
15 3 5 1 11 -4 15 -11 6 -3 35 10 35 4 0 6 -7 3 -15 -4 -10 0 -15 11 -15 11 0
15 5 11 15 -9 24 4 45 28 45 21 -1 21 -1 2 -15 -11 -8 -15 -15 -10 -15 6 0 19
7 30 16 13 11 15 17 6 20 -6 3 -9 10 -6 15 3 6 11 5 20 -2 11 -9 18 -9 26 -1
9 9 7 12 -8 12 -12 0 -29 9 -39 20 -10 11 -13 20 -7 20 7 0 12 -4 12 -9 0 -12
63 -21 75 -10 5 6 3 9 -8 9 -11 0 -14 5 -10 16 6 15 7 15 19 -1 7 -9 18 -14
24 -10 8 5 8 11 -1 21 -10 12 -8 18 7 29 24 18 23 18 40 1z m124 4 c0 -5 -2
-10 -4 -10 -3 0 -8 5 -11 10 -3 6 -1 10 4 10 6 0 11 -4 11 -10z m-756 -31
c-17 -19 -7 -27 12 -10 5 4 22 11 38 15 25 6 27 5 13 -8 -8 -8 -26 -18 -41
-22 -14 -3 -26 -10 -26 -15 0 -14 -20 -10 -26 5 -7 18 25 68 38 60 5 -3 2 -14
-8 -25z m512 6 c-3 -9 -10 -13 -16 -10 -6 4 -5 11 3 20 15 16 22 11 13 -10z
m-106 5 c0 -5 -4 -10 -10 -10 -5 0 -10 5 -10 10 0 6 5 10 10 10 6 0 10 -4 10
-10z m55 0 c3 -5 1 -10 -4 -10 -6 0 -11 5 -11 10 0 6 2 10 4 10 3 0 8 -4 11
-10z m254 -26 c-26 -28 -50 -33 -26 -6 10 10 17 24 17 30 0 6 7 9 16 5 13 -5
12 -9 -7 -29z m-370 22 c-33 -29 -142 -96 -147 -91 -4 4 1 12 12 19 10 6 40
25 65 43 25 17 52 32 60 32 8 1 12 -1 10 -3z m2151 -6 c0 -5 -2 -10 -4 -10 -3
0 -8 5 -11 10 -3 6 -1 10 4 10 6 0 11 -4 11 -10z m-2360 -5 c0 -2 -15 -12 -32
-20 l-33 -16 25 20 c24 20 40 26 40 16z m-6863 -31 c-7 -7 -37 7 -37 17 0 6 9
5 21 -1 11 -7 19 -14 16 -16z m2953 18 c0 -5 -7 -17 -15 -28 -14 -18 -14 -17
-4 9 12 27 19 34 19 19z m5484 -12 c3 -11 9 -29 12 -40 9 -33 -13 -23 -25 11
-13 39 -14 49 -2 49 5 0 12 -9 15 -20z m-8237 -12 c-3 -8 -6 -5 -6 6 -1 11 2
17 5 13 3 -3 4 -12 1 -19z m6858 2 c-10 -11 -23 -20 -29 -20 -6 0 0 9 14 20
32 25 38 25 15 0z m-348 -35 c8 -18 6 -25 -11 -35 -14 -9 -21 -10 -24 -1 -2 6
-11 11 -19 11 -9 0 -13 -6 -9 -15 3 -9 0 -15 -10 -15 -8 0 -12 -5 -9 -10 8
-13 -20 -24 -36 -15 -8 6 -7 10 2 17 9 6 2 7 -21 2 -20 -3 -31 -3 -27 2 5 5
13 9 19 9 6 0 19 15 29 34 32 61 91 69 116 16z m1780 30 c8 -9 13 -18 11 -21
-3 -2 -13 5 -23 16 -21 23 -11 27 12 5z m-1343 -30 c-4 -17 -10 -23 -16 -17
-6 6 -5 17 3 30 17 27 22 22 13 -13z m1166 20 c0 -8 -4 -15 -9 -15 -13 0 -22
16 -14 24 11 11 23 6 23 -9z m-8166 -25 c9 0 16 -4 16 -10 0 -5 -6 -10 -12
-10 -20 1 -48 25 -48 41 1 10 4 9 14 -3 7 -10 21 -18 30 -18z m7251 20 c-3 -5
-11 -10 -16 -10 -6 0 -7 5 -4 10 3 6 11 10 16 10 6 0 7 -4 4 -10z m1385 -2 c0
-16 -22 -18 -42 -4 -21 15 -21 15 10 13 18 -1 32 -5 32 -9z m-5831 -48 c-2
-27 -4 -50 -5 -50 -1 0 -10 3 -18 6 -13 5 -14 10 -5 20 6 7 9 19 6 26 -4 8 -8
5 -12 -9 -4 -13 -12 -23 -17 -23 -6 0 -4 -8 3 -17 13 -17 13 -17 -7 0 -11 9
-25 14 -30 10 -5 -4 7 10 26 32 33 37 51 54 58 55 2 0 2 -22 1 -50z m4145 35
c-4 -8 -7 -15 -9 -15 -2 0 -5 7 -9 15 -3 9 0 15 9 15 9 0 12 -6 9 -15z m-104
-15 c-27 -21 -40 -25 -40 -12 0 9 38 30 55 31 6 0 -1 -8 -15 -19z m70 10 c0
-5 -5 -10 -11 -10 -5 0 -7 5 -4 10 3 6 8 10 11 10 2 0 4 -4 4 -10z m-230 -4
c0 -3 -4 -8 -10 -11 -5 -3 -10 -1 -10 4 0 6 5 11 10 11 6 0 10 -2 10 -4z m510
-11 c-7 -8 -20 -15 -29 -15 -11 1 -8 5 9 15 32 18 35 18 20 0z m-320 -5 c0 -5
-5 -10 -11 -10 -5 0 -7 5 -4 10 3 6 8 10 11 10 2 0 4 -4 4 -10z m1295 2 c13
-9 16 -72 4 -72 -5 0 -10 8 -11 18 -2 32 -4 37 -11 50 -9 13 2 16 18 4z m378
-17 c-22 -17 -30 -11 -13 10 7 8 17 12 22 9 5 -3 1 -12 -9 -19z m-1583 5 c0
-5 -4 -10 -10 -10 -5 0 -10 5 -10 10 0 6 5 10 10 10 6 0 10 -4 10 -10z m-225
-10 c-3 -5 -12 -10 -18 -10 -7 0 -6 4 3 10 19 12 23 12 15 0z m163 -28 c6 -18
-15 -14 -22 4 -4 10 -1 14 6 12 6 -2 14 -10 16 -16z m187 8 c-3 -5 -10 -10
-16 -10 -5 0 -9 5 -9 10 0 6 7 10 16 10 8 0 12 -4 9 -10z m65 5 c0 -8 -79 -55
-92 -55 -7 0 1 9 18 19 18 11 35 24 38 30 7 11 36 16 36 6z m1360 -10 c0 -9
-6 -12 -15 -9 -8 4 -12 10 -9 15 8 14 24 10 24 -6z m-1760 0 c0 -2 -10 -10
-22 -16 -21 -11 -22 -11 -9 4 13 16 31 23 31 12z m-2000 -31 c0 -8 -7 -14 -15
-14 -15 0 -21 21 -9 33 10 9 24 -2 24 -19z m1773 6 c3 -13 0 -20 -8 -20 -11 0
-13 14 -6 38 3 8 9 -1 14 -18z m52 0 c-3 -5 -10 -10 -16 -10 -5 0 -9 5 -9 10
0 6 7 10 16 10 8 0 12 -4 9 -10z m195 -10 c0 -5 -9 -10 -21 -10 -11 0 -17 5
-14 10 3 6 13 10 21 10 8 0 14 -4 14 -10z m-4055 -10 c3 -5 -1 -10 -9 -10 -9
0 -16 5 -16 10 0 6 4 10 9 10 6 0 13 -4 16 -10z m3919 4 c16 -6 12 -24 -5 -24
-6 0 -7 5 -3 12 5 7 2 9 -7 6 -8 -3 -25 -8 -39 -12 -21 -5 -20 -3 5 9 17 8 31
14 32 15 1 0 8 -3 17 -6z m286 -9 c9 -11 10 -15 1 -15 -8 0 -10 -8 -6 -20 9
-28 -3 -44 -21 -29 -11 9 -21 9 -40 0 -14 -6 -23 -15 -20 -19 5 -9 -33 -46
-40 -39 -3 3 2 12 11 21 19 18 12 21 -15 6 -15 -8 -21 -6 -29 7 -9 16 -12 16
-20 3 -12 -17 -27 -7 -16 10 5 8 21 10 41 7 41 -7 43 4 7 32 -16 11 -22 21
-15 21 7 0 24 -11 38 -25 26 -26 48 -26 38 0 -7 18 27 35 57 28 21 -6 23 -5
10 10 -7 9 -9 17 -3 17 5 0 15 -7 22 -15z m-90 -11 c0 -2 -9 -4 -21 -4 -11 0
-18 4 -14 10 5 8 35 3 35 -6z m-113 0 c-3 -3 -12 -4 -19 -1 -8 3 -5 6 6 6 11
1 17 -2 13 -5z m1679 -14 c0 -21 -28 -36 -46 -25 -6 4 -1 14 12 25 29 25 34
24 34 0z m-8141 -38 c-4 -4 -13 2 -21 12 -22 30 -17 43 7 17 12 -12 18 -25 14
-29z m6479 33 c-4 -8 -11 -15 -16 -15 -6 0 -5 6 2 15 7 8 14 15 16 15 2 0 1
-7 -2 -15z m296 11 c0 -2 -8 -10 -17 -17 -16 -13 -17 -12 -4 4 13 16 21 21 21
13z m-356 -15 c3 -5 -8 -11 -24 -13 -30 -5 -41 6 -17 15 20 9 35 8 41 -2z
m1291 -11 c3 -5 -1 -10 -10 -10 -9 0 -13 5 -10 10 3 6 8 10 10 10 2 0 7 -4 10
-10z m145 0 c0 -5 -9 -10 -19 -10 -11 0 -23 -5 -26 -10 -4 -6 -11 -8 -16 -5
-16 10 -10 23 14 28 39 8 47 7 47 -3z m-1120 -15 c0 -5 -80 -45 -90 -45 -6 0
-19 -9 -30 -20 -11 -11 -25 -20 -31 -20 -5 0 3 11 18 25 23 20 26 26 13 34 -8
6 -11 14 -6 18 5 4 11 2 13 -4 7 -20 54 -16 60 5 3 14 11 18 29 14 13 -2 24
-6 24 -7z m-290 -5 c0 -5 -4 -10 -10 -10 -5 0 -10 5 -10 10 0 6 5 10 10 10 6
0 10 -4 10 -10z m1227 -17 c1 -22 -1 -24 -8 -10 -6 9 -7 22 -4 27 9 14 10 13
12 -17z m-7637 3 c0 -21 -20 -30 -33 -17 -9 9 -8 14 3 21 21 14 30 12 30 -4z
m7813 -1 c-3 -9 -8 -14 -10 -11 -3 3 -2 9 2 15 9 16 15 13 8 -4z m-5437 -4 c5
-4 30 -14 57 -21 42 -11 47 -16 47 -41 0 -27 -3 -29 -37 -28 -50 1 -126 21
-130 35 -4 11 34 64 46 64 4 0 11 -4 17 -9z m5344 -8 c0 -8 -4 -12 -9 -9 -5 3
-14 -1 -21 -9 -16 -19 -31 -19 -24 0 4 8 1 15 -6 15 -6 0 -9 4 -6 8 9 15 66
10 66 -5z m-7689 -26 c-7 -18 -6 -30 4 -43 13 -18 14 -18 15 -1 0 18 20 25 20
7 0 -19 -24 -37 -41 -33 -19 5 -34 46 -18 51 6 3 6 9 -2 18 -9 11 -8 14 5 14
9 0 16 5 16 12 0 6 2 9 5 6 3 -3 1 -17 -4 -31z m7739 23 c0 -5 -4 -10 -10 -10
-5 0 -10 5 -10 10 0 6 5 10 10 10 6 0 10 -4 10 -10z m-154 -11 c7 -13 -13 -29
-36 -28 -10 0 -11 2 -2 6 6 2 12 11 12 19 0 17 16 19 26 3z m284 -8 c0 -15
-19 -23 -38 -16 -14 5 -14 7 -2 15 19 12 40 13 40 1z m-1905 -16 c-16 -7 -34
-11 -39 -8 -12 8 9 18 41 20 l28 1 -30 -13z m1191 3 c4 -5 -16 -8 -44 -8 -28
0 -53 4 -56 8 -6 10 90 10 100 0z m74 -3 c0 -8 -9 -15 -20 -15 -25 0 -26 17
-2 23 9 3 18 5 20 6 1 0 2 -6 2 -14z m565 5 c-3 -5 -11 -10 -16 -10 -6 0 -7 5
-4 10 3 6 11 10 16 10 6 0 7 -4 4 -10z m-1705 -34 c0 -4 -6 -3 -14 3 -7 6 -21
9 -30 5 -9 -3 -16 -2 -16 4 0 6 6 12 13 15 14 5 47 -14 47 -27z m1240 24 c0
-5 -8 -10 -17 -10 -15 0 -16 2 -3 10 19 12 20 12 20 0z m381 -3 c-1 -4 -1 -17
-1 -29 0 -20 -1 -20 -19 -4 -10 9 -25 14 -35 10 -9 -3 -16 -2 -16 3 0 5 12 14
28 20 29 12 44 12 43 0z m-1733 -19 c8 -10 4 -13 -14 -14 -25 -2 -33 11 -11
19 6 3 13 6 13 6 1 1 6 -5 12 -11z m1638 -1 c4 -4 -3 -7 -15 -7 -17 0 -21 -4
-17 -15 6 -18 -19 -21 -30 -3 -14 22 42 45 62 25z m-7545 -14 c13 -16 12 -17
-3 -4 -10 7 -18 15 -18 17 0 8 8 3 21 -13z m6063 -14 c-3 -5 1 -6 9 -4 7 3 32
-3 54 -13 l41 -18 -40 -12 c-44 -14 -53 -10 -81 36 -17 29 -17 30 3 25 11 -3
17 -9 14 -14z m136 11 c0 -5 -10 -10 -22 -9 -22 0 -22 1 -3 9 11 5 21 9 23 9
1 1 2 -3 2 -9z m1065 0 c-28 -12 -37 -12 -30 0 3 6 16 10 28 9 21 0 21 -1 2
-9z m1215 -5 c0 -8 -7 -23 -17 -34 -15 -18 -18 -18 -39 -4 -29 19 -22 35 12
27 18 -5 24 -2 24 10 0 9 5 16 10 16 6 0 10 -7 10 -15z m-6250 -4 c0 -5 -7
-14 -15 -21 -13 -10 -15 -9 -15 9 0 12 6 21 15 21 8 0 15 -4 15 -9z m5240 -13
c0 -6 -6 -5 -15 2 -8 7 -15 14 -15 16 0 2 7 1 15 -2 8 -4 15 -11 15 -16z
m-7480 2 c0 -5 -4 -10 -10 -10 -5 0 -10 5 -10 10 0 6 5 10 10 10 6 0 10 -4 10
-10z m2290 -1 c-11 -8 -6 -9 20 -4 l35 6 -23 -20 c-19 -17 -27 -18 -43 -8 -26
16 -24 37 4 37 18 0 19 -2 7 -11z m3400 -19 c0 -5 -5 -10 -11 -10 -5 0 -7 5
-4 10 3 6 8 10 11 10 2 0 4 -4 4 -10z m1463 -23 c-3 -5 -10 -4 -15 1 -6 6 -7
16 -3 22 6 9 9 9 16 -1 4 -7 5 -17 2 -22z m-4763 -2 c0 -20 -24 -24 -51 -8
-24 14 -24 14 -1 9 14 -3 25 1 29 10 6 16 23 9 23 -11z m3255 15 c-3 -5 -1
-10 5 -10 6 0 8 -4 5 -10 -10 -16 -23 -11 -20 8 5 23 4 22 11 22 3 0 2 -4 -1
-10z m-35 -35 c0 -14 2 -25 5 -25 2 0 21 11 41 25 20 14 41 25 47 25 12 0 -37
-40 -50 -40 -4 0 -21 -14 -37 -30 -16 -17 -34 -30 -40 -30 -6 1 0 10 13 21
l24 19 -24 21 c-20 17 -21 22 -9 29 24 15 30 12 30 -15z m1088 -42 c-6 -7 -14
-13 -19 -13 -5 0 -9 6 -9 13 0 7 9 13 19 13 15 0 17 -3 9 -13z m-4440 -15 c17
-5 32 -14 32 -18 0 -5 7 -7 15 -4 8 3 24 -2 37 -11 14 -11 16 -15 6 -12 -9 3
-19 1 -21 -6 -3 -8 -10 -7 -24 6 -11 9 -27 17 -35 17 -9 0 -21 7 -28 15 -9 11
-22 14 -42 10 -22 -5 -27 -3 -22 8 5 15 18 14 82 -5z m52 12 c0 -5 -2 -10 -4
-10 -3 0 -8 5 -11 10 -3 6 -1 10 4 10 6 0 11 -4 11 -10z m3250 -10 c-24 -15
-37 -11 -16 5 11 8 22 12 25 9 3 -3 -1 -9 -9 -14z m-3180 6 c0 -3 -4 -8 -10
-11 -5 -3 -10 -1 -10 4 0 6 5 11 10 11 6 0 10 -2 10 -4z m3125 -6 c-3 -5 -12
-10 -18 -10 -7 0 -6 4 3 10 19 12 23 12 15 0z m-3085 -16 c0 -2 -7 -4 -15 -4
-8 0 -15 4 -15 10 0 5 7 7 15 4 8 -4 15 -8 15 -10z m3140 -8 c0 -2 -11 -11
-25 -20 -14 -9 -25 -13 -25 -8 0 5 10 14 23 20 27 13 27 13 27 8z m-2712 -39
c4 -20 -25 -34 -40 -19 -15 15 -1 44 19 40 10 -2 19 -11 21 -21z m-448 3 c0
-5 -7 -10 -15 -10 -8 0 -15 5 -15 10 0 6 7 10 15 10 8 0 15 -4 15 -10z m3085
-10 c-3 -5 -11 -10 -16 -10 -6 0 -7 5 -4 10 3 6 11 10 16 10 6 0 7 -4 4 -10z
m-3189 -24 c8 -8 21 -13 28 -10 8 3 17 1 21 -5 3 -6 15 -11 26 -11 10 0 19 -4
19 -10 0 -5 7 -10 15 -10 8 0 15 -7 15 -16 0 -9 9 -18 21 -21 12 -4 18 -11 15
-20 -3 -8 -6 -24 -6 -35 0 -18 -2 -19 -17 -7 -15 13 -16 10 -11 -26 4 -22 4
-34 1 -27 -10 26 -23 10 -23 -28 0 -22 5 -40 10 -40 6 0 9 -22 8 -49 -1 -27
-6 -49 -12 -48 -5 1 -13 -13 -18 -30 -6 -23 -15 -33 -27 -33 -11 0 -21 -6 -24
-12 -3 -10 -9 -10 -26 0 -11 6 -34 12 -50 12 -33 0 -40 12 -46 81 -4 48 -12
60 -25 39 -7 -10 -10 7 -12 55 -1 49 -3 57 -5 28 -2 -24 -8 -43 -14 -43 -12 0
-12 77 1 85 5 3 8 25 6 48 -2 23 0 50 5 60 6 11 6 17 -1 17 -14 0 -13 53 3 69
16 17 102 8 123 -13z m-2225 -3 c13 -16 12 -17 -3 -4 -10 7 -18 15 -18 17 0 8
8 3 21 -13z m-281 -13 c0 -5 -2 -10 -4 -10 -3 0 -8 5 -11 10 -3 6 -1 10 4 10
6 0 11 -4 11 -10z m230 -5 c0 -8 -4 -15 -9 -15 -5 0 -22 -5 -38 -12 -15 -6
-37 -11 -48 -10 -11 1 -14 -1 -7 -4 6 -3 10 -10 6 -15 -3 -5 1 -9 8 -9 7 -1
-3 -8 -22 -16 -33 -14 -35 -14 -52 8 -10 13 -18 26 -18 30 0 4 33 17 73 28 39
12 77 23 82 25 20 7 25 5 25 -10z m2097 -11 c-3 -3 -12 -4 -19 -1 -8 3 -5 6 6
6 11 1 17 -2 13 -5z m338 -34 c3 -5 -1 -10 -9 -10 -9 0 -16 5 -16 10 0 6 4 10
9 10 6 0 13 -4 16 -10z m30 -86 c0 -29 -4 -34 -22 -34 -13 0 -23 5 -23 10 0 6
6 9 13 8 7 -2 11 5 9 16 -4 23 6 51 16 42 4 -4 7 -23 7 -42z m-2246 12 c8 -10
9 -16 1 -21 -13 -8 -30 3 -30 21 0 18 14 18 29 0z m3187 -187 c10 -17 -13 -36
-27 -22 -12 12 -4 33 11 33 5 0 12 -5 16 -11z m-3062 -248 c3 -5 -1 -11 -9
-15 -9 -3 -15 0 -15 9 0 16 16 20 24 6z m-1117 -177 c-3 -3 -12 -4 -19 -1 -8
3 -5 6 6 6 11 1 17 -2 13 -5z m-110 -30 c-3 -3 -12 -4 -19 -1 -8 3 -5 6 6 6
11 1 17 -2 13 -5z m63 -60 c0 -14 -4 -22 -10 -19 -5 3 -10 17 -10 31 0 14 4
22 10 19 6 -3 10 -17 10 -31z m37 20 c-3 -3 -12 -4 -19 -1 -8 3 -5 6 6 6 11 1
17 -2 13 -5z m71 -27 c3 -12 -4 -17 -22 -17 -14 0 -26 5 -26 10 0 6 10 10 23
10 18 0 19 2 7 11 -13 9 -13 10 0 6 8 -2 16 -11 18 -20z m172 3 c0 -5 -5 -10
-11 -10 -5 0 -7 5 -4 10 3 6 8 10 11 10 2 0 4 -4 4 -10z m-310 -4 c0 -3 -4 -8
-10 -11 -5 -3 -10 -1 -10 4 0 6 5 11 10 11 6 0 10 -2 10 -4z m215 -16 c3 -5
-1 -10 -10 -10 -9 0 -13 5 -10 10 3 6 8 10 10 10 2 0 7 -4 10 -10z m115 -96
c0 -2 -9 -4 -20 -4 -11 0 -20 4 -20 9 0 5 9 7 20 4 11 -3 20 -7 20 -9z m65 -4
c3 -5 1 -10 -4 -10 -6 0 -11 5 -11 10 0 6 2 10 4 10 3 0 8 -4 11 -10z m8275
-156 c0 -17 -26 -19 -36 -3 -7 12 15 31 28 23 4 -3 8 -12 8 -20z m-3060 -139
c7 -9 19 -14 27 -11 9 4 13 -3 13 -19 0 -15 7 -26 20 -30 11 -3 20 -15 20 -25
0 -11 9 -24 20 -30 14 -7 20 -7 20 0 0 5 7 10 15 10 11 0 15 -12 15 -50 0 -28
-5 -50 -10 -50 -6 0 -13 -8 -17 -17 -8 -23 -57 -71 -108 -105 -40 -28 -72 -29
-103 -5 -7 5 -27 10 -43 9 -23 0 -33 4 -36 19 -3 11 -13 19 -22 18 -31 -3 -41
1 -41 16 0 9 -6 12 -17 9 -17 -5 -17 -5 0 9 9 8 17 25 17 38 0 13 0 39 0 56 0
26 3 31 16 26 13 -5 15 -2 7 13 -6 10 -7 30 -4 43 6 22 8 23 23 8 9 -10 21
-17 27 -17 13 0 33 35 24 43 -3 4 6 11 21 16 14 6 26 15 26 20 0 5 15 12 33
14 17 2 35 5 38 5 4 1 12 -5 19 -13z m-148 -17 c-7 -7 -12 -8 -12 -2 0 14 12
26 19 19 2 -3 -1 -11 -7 -17z m-1335 -40 c-3 -8 -6 -5 -6 6 -1 11 2 17 5 13 3
-3 4 -12 1 -19z m-37 2 c0 -5 -2 -10 -4 -10 -3 0 -8 5 -11 10 -3 6 -1 10 4 10
6 0 11 -4 11 -10z m-1963 -26 c-3 -3 -12 -4 -19 -1 -8 3 -5 6 6 6 11 1 17 -2
13 -5z m87 -98 c-4 -9 3 -16 18 -19 13 -2 5 -5 -20 -6 -40 -1 -41 0 -30 19 15
23 40 27 32 6z m-646 -68 c-6 -18 -28 -21 -28 -4 0 9 7 16 16 16 9 0 14 -5 12
-12z m-451 -4 c-3 -3 -12 -4 -19 -1 -8 3 -5 6 6 6 11 1 17 -2 13 -5z m-7 -86
c15 -16 17 -24 8 -27 -6 -2 -14 1 -16 8 -2 6 -10 18 -19 26 -8 8 -10 15 -4 15
6 0 20 -10 31 -22z m1367 16 c-3 -3 -12 -4 -19 -1 -8 3 -5 6 6 6 11 1 17 -2
13 -5z m88 -14 c3 -5 -3 -10 -14 -10 -12 0 -21 5 -21 10 0 6 6 10 14 10 8 0
18 -4 21 -10z"/>
<path d="M6690 8411 c0 -5 5 -13 10 -16 6 -3 10 -2 10 4 0 5 -4 13 -10 16 -5
3 -10 2 -10 -4z"/>
<path d="M5820 6661 c0 -6 4 -13 10 -16 6 -3 7 1 4 9 -7 18 -14 21 -14 7z"/>
<path d="M9423 3435 c-15 -17 -16 -25 -3 -25 5 0 14 9 20 20 12 23 1 26 -17 5z"/>
<path d="M9395 3380 c3 -5 8 -10 11 -10 2 0 4 5 4 10 0 6 -5 10 -11 10 -5 0
-7 -4 -4 -10z"/>
<path d="M6990 4960 c0 -5 7 -10 15 -10 8 0 15 5 15 10 0 6 -7 10 -15 10 -8 0
-15 -4 -15 -10z"/>
<path d="M4960 4800 c0 -5 5 -10 11 -10 5 0 7 5 4 10 -3 6 -8 10 -11 10 -2 0
-4 -4 -4 -10z"/>
<path d="M5005 4800 c-3 -5 -1 -10 4 -10 6 0 11 5 11 10 0 6 -2 10 -4 10 -3 0
-8 -4 -11 -10z"/>
<path d="M9230 4495 c-11 -13 -8 -15 14 -15 16 0 26 5 26 15 0 8 -6 15 -14 15
-7 0 -19 -7 -26 -15z"/>
<path d="M9140 4370 c0 -5 4 -10 9 -10 6 0 13 5 16 10 3 6 -1 10 -9 10 -9 0
-16 -4 -16 -10z"/>
<path d="M9180 4355 c-13 -16 -8 -18 27 -9 13 4 20 10 17 15 -8 14 -30 11 -44
-6z"/>
<path d="M9130 4238 c-12 -22 -12 -22 6 -6 10 10 15 20 12 24 -4 3 -12 -5 -18
-18z"/>
<path d="M9185 4250 c-4 -6 -3 -16 3 -22 6 -6 12 -6 17 2 4 6 3 16 -3 22 -6 6
-12 6 -17 -2z"/>
<path d="M9175 4169 c-4 -6 -5 -13 -2 -16 7 -7 27 6 27 18 0 12 -17 12 -25 -2z"/>
<path d="M9080 4031 c0 -12 26 -32 33 -25 9 10 -4 34 -19 34 -8 0 -14 -4 -14
-9z"/>
<path d="M9136 4023 c-10 -11 -7 -53 5 -53 6 0 1 -9 -12 -20 -30 -24 -6 -27
25 -2 23 17 23 18 6 50 -9 17 -20 29 -24 25z"/>
<path d="M3025 4570 c3 -5 8 -10 11 -10 2 0 4 5 4 10 0 6 -5 10 -11 10 -5 0
-7 -4 -4 -10z"/>
<path d="M1020 3149 c0 -5 5 -7 10 -4 6 3 10 8 10 11 0 2 -4 4 -10 4 -5 0 -10
-5 -10 -11z"/>
<path d="M1055 3140 c3 -5 10 -10 16 -10 5 0 9 5 9 10 0 6 -7 10 -16 10 -8 0
-12 -4 -9 -10z"/>
<path d="M9490 2380 c0 -5 5 -10 10 -10 6 0 10 5 10 10 0 6 -4 10 -10 10 -5 0
-10 -4 -10 -10z"/>
<path d="M8600 2340 c-8 -5 -11 -12 -7 -16 4 -4 15 0 24 9 18 18 8 23 -17 7z"/>
<path d="M7970 2290 c0 -5 5 -10 10 -10 6 0 10 5 10 10 0 6 -4 10 -10 10 -5 0
-10 -4 -10 -10z"/>
<path d="M8290 2150 c0 -5 5 -10 10 -10 6 0 10 5 10 10 0 6 -4 10 -10 10 -5 0
-10 -4 -10 -10z"/>
<path d="M7915 1970 c3 -5 10 -10 16 -10 5 0 9 5 9 10 0 6 -7 10 -16 10 -8 0
-12 -4 -9 -10z"/>
<path d="M987 10482 c-21 -23 -21 -32 -2 -32 8 0 15 -9 15 -19 0 -22 15 -35
30 -26 6 3 6 15 0 30 -6 16 -5 25 2 27 16 6 2 38 -15 38 -8 0 -21 -8 -30 -18z"/>
<path d="M940 10359 c0 -51 2 -55 25 -57 25 -2 25 -1 10 22 -9 13 -17 36 -19
50 -5 49 -16 39 -16 -15z"/>
<path d="M991 10253 c7 -10 15 -20 16 -22 2 -2 3 3 3 11 0 9 -7 19 -16 22 -15
6 -15 4 -3 -11z"/>
<path d="M1037 10263 c-4 -3 -7 -11 -7 -17 0 -6 5 -5 12 2 6 6 9 14 7 17 -3 3
-9 2 -12 -2z"/>
<path d="M981 10204 c0 -11 3 -14 6 -6 3 7 2 16 -1 19 -3 4 -6 -2 -5 -13z"/>
<path d="M10150 9220 c0 -5 5 -10 10 -10 6 0 10 5 10 10 0 6 -4 10 -10 10 -5
0 -10 -4 -10 -10z"/>
<path d="M10190 9185 c0 -11 68 -113 80 -120 22 -13 8 15 -35 69 -25 32 -45
55 -45 51z"/>
<path d="M703 9095 c2 -5 10 -10 17 -10 7 0 15 5 17 10 2 6 -6 11 -17 11 -11
0 -19 -5 -17 -11z"/>
<path d="M10310 9015 c7 -9 15 -13 17 -11 7 7 -7 26 -19 26 -6 0 -6 -6 2 -15z"/>
<path d="M640 8890 c0 -5 5 -10 11 -10 5 0 7 5 4 10 -3 6 -8 10 -11 10 -2 0
-4 -4 -4 -10z"/>
<path d="M9957 8886 c-5 -13 20 -45 30 -38 10 7 21 0 26 -18 3 -11 12 -20 21
-20 24 0 18 12 -29 53 -32 28 -44 34 -48 23z"/>
<path d="M587 8799 c-4 -16 -3 -18 9 -8 16 13 19 29 5 29 -5 0 -11 -9 -14 -21z"/>
<path d="M10060 8781 c0 -12 5 -21 10 -21 6 0 10 6 10 14 0 8 -4 18 -10 21 -5
3 -10 -3 -10 -14z"/>
<path d="M10100 8740 c0 -5 5 -10 11 -10 5 0 7 5 4 10 -3 6 -8 10 -11 10 -2 0
-4 -4 -4 -10z"/>
<path d="M10170 8659 c0 -5 5 -7 10 -4 6 3 10 8 10 11 0 2 -4 4 -10 4 -5 0
-10 -5 -10 -11z"/>
<path d="M10550 8589 c0 -11 37 -49 48 -49 3 0 -2 8 -11 18 -10 10 -17 24 -17
30 0 7 -4 12 -10 12 -5 0 -10 -5 -10 -11z"/>
<path d="M10270 8560 c0 -5 5 -10 11 -10 5 0 7 5 4 10 -3 6 -8 10 -11 10 -2 0
-4 -4 -4 -10z"/>
<path d="M10628 8544 c-14 -13 -9 -42 8 -48 23 -9 28 -7 16 7 -5 6 -11 20 -13
30 -2 11 -7 15 -11 11z"/>
<path d="M10297 8519 c7 -7 15 -10 18 -7 3 3 -2 9 -12 12 -14 6 -15 5 -6 -5z"/>
<path d="M10720 8454 c0 -9 5 -14 12 -12 18 6 21 28 4 28 -9 0 -16 -7 -16 -16z"/>
<path d="M435 8430 c-3 -5 -1 -10 4 -10 6 0 11 5 11 10 0 6 -2 10 -4 10 -3 0
-8 -4 -11 -10z"/>
<path d="M491 8419 c7 -14 14 -18 21 -11 13 13 2 32 -18 32 -12 0 -13 -4 -3
-21z"/>
<path d="M10380 8426 c0 -2 7 -7 16 -10 8 -3 12 -2 9 4 -6 10 -25 14 -25 6z"/>
<path d="M10420 8375 c7 -9 15 -13 17 -11 7 7 -7 26 -19 26 -6 0 -6 -6 2 -15z"/>
<path d="M471 8364 c0 -11 3 -14 6 -6 3 7 2 16 -1 19 -3 4 -6 -2 -5 -13z"/>
<path d="M10455 8340 c3 -5 8 -10 11 -10 2 0 4 5 4 10 0 6 -5 10 -11 10 -5 0
-7 -4 -4 -10z"/>
<path d="M415 8300 c3 -5 8 -10 11 -10 2 0 4 5 4 10 0 6 -5 10 -11 10 -5 0 -7
-4 -4 -10z"/>
<path d="M370 8110 c0 -5 5 -10 11 -10 5 0 7 5 4 10 -3 6 -8 10 -11 10 -2 0
-4 -4 -4 -10z"/>
<path d="M10695 8030 c3 -5 8 -10 11 -10 2 0 4 5 4 10 0 6 -5 10 -11 10 -5 0
-7 -4 -4 -10z"/>
<path d="M390 8000 c0 -5 5 -10 10 -10 6 0 10 5 10 10 0 6 -4 10 -10 10 -5 0
-10 -4 -10 -10z"/>
<path d="M10720 8000 c0 -5 16 -31 35 -56 l35 -46 -3 45 c-1 25 -6 49 -10 54
-5 4 -5 0 -2 -9 5 -13 2 -15 -14 -11 -12 3 -21 12 -21 19 0 8 -4 14 -10 14 -5
0 -10 -4 -10 -10z"/>
<path d="M206 7821 c-4 -7 -5 -15 -2 -18 9 -9 19 4 14 18 -4 11 -6 11 -12 0z"/>
<path d="M250 7820 c0 -5 5 -10 10 -10 6 0 10 5 10 10 0 6 -4 10 -10 10 -5 0
-10 -4 -10 -10z"/>
<path d="M7 6219 c4 -13 8 -18 11 -10 2 7 -1 18 -6 23 -8 8 -9 4 -5 -13z"/>
<path d="M40 5992 c0 -5 7 -13 16 -16 10 -4 14 -1 12 6 -5 15 -28 23 -28 10z"/>
<path d="M75 5807 c-4 -10 -5 -21 -1 -24 10 -10 18 4 13 24 -4 17 -4 17 -12 0z"/>
<path d="M0 3789 l0 -144 30 -1 c28 -1 30 2 30 32 0 19 -4 34 -8 34 -5 0 -8
34 -6 75 2 52 -2 77 -11 85 -8 6 -12 17 -9 24 3 7 -2 19 -11 26 -13 11 -15 -3
-15 -131z m35 -109 c3 -5 -1 -10 -10 -10 -9 0 -13 5 -10 10 3 6 8 10 10 10 2
0 7 -4 10 -10z"/>
<path d="M70 3743 c0 -4 5 -15 10 -23 8 -13 10 -13 10 2 0 9 -4 20 -10 23 -5
3 -10 3 -10 -2z"/>
<path d="M80 3680 c0 -5 5 -10 11 -10 5 0 7 5 4 10 -3 6 -8 10 -11 10 -2 0 -4
-4 -4 -10z"/>
<path d="M0 3600 c0 -13 5 -18 14 -14 8 3 12 12 9 20 -8 21 -23 17 -23 -6z"/>
<path d="M100 3600 c0 -5 5 -10 10 -10 6 0 10 5 10 10 0 6 -4 10 -10 10 -5 0
-10 -4 -10 -10z"/>
<path d="M10565 3380 c3 -5 10 -10 16 -10 5 0 9 5 9 10 0 6 -7 10 -16 10 -8 0
-12 -4 -9 -10z"/>
<path d="M10560 3334 c0 -17 17 -36 24 -26 3 5 -1 15 -9 22 -8 7 -15 9 -15 4z"/>
<path d="M10500 3045 c0 -16 16 -20 24 -6 3 5 -1 11 -9 15 -9 3 -15 0 -15 -9z"/>
<path d="M690 2890 c-12 -8 -10 -10 8 -10 13 0 20 4 17 10 -7 12 -6 12 -25 0z"/>
<path d="M10430 2806 c0 -2 7 -6 15 -10 8 -3 15 -1 15 4 0 6 -7 10 -15 10 -8
0 -15 -2 -15 -4z"/>
<path d="M10595 2480 c-3 -5 -2 -10 4 -10 5 0 13 5 16 10 3 6 2 10 -4 10 -5 0
-13 -4 -16 -10z"/>
<path d="M9610 2370 c0 -5 5 -10 11 -10 5 0 7 5 4 10 -3 6 -8 10 -11 10 -2 0
-4 -4 -4 -10z"/>
<path d="M9170 2236 c-8 -10 -21 -14 -36 -10 -15 4 -24 2 -24 -5 0 -6 -9 -11
-21 -11 -11 0 -18 -4 -15 -9 4 -5 24 -5 48 1 24 6 54 12 67 13 25 4 54 25 34
25 -6 0 -18 2 -26 5 -7 3 -20 -1 -27 -9z"/>
<path d="M1030 2219 c0 -5 5 -7 10 -4 6 3 10 8 10 11 0 2 -4 4 -10 4 -5 0 -10
-5 -10 -11z"/>
<path d="M9366 2222 c-3 -6 -1 -14 5 -17 14 -9 20 -2 10 14 -6 8 -11 9 -15 3z"/>
<path d="M8750 2198 c0 -9 15 -11 45 -8 38 4 34 15 -5 15 -22 0 -40 -3 -40 -7z"/>
<path d="M9290 2190 c0 -12 28 -25 36 -17 3 3 -4 10 -15 17 -15 7 -21 7 -21 0z"/>
<path d="M9490 2190 c0 -5 7 -10 16 -10 8 0 12 5 9 10 -3 6 -10 10 -16 10 -5
0 -9 -4 -9 -10z"/>
<path d="M8678 2183 c6 -2 18 -2 25 0 6 3 1 5 -13 5 -14 0 -19 -2 -12 -5z"/>
<path d="M9942 2161 c2 -7 7 -12 11 -12 12 1 9 15 -3 20 -7 2 -11 -2 -8 -8z"/>
<path d="M8540 2140 c0 -5 5 -10 11 -10 6 0 9 -7 6 -15 -4 -8 -2 -17 4 -21 17
-10 20 1 10 30 -10 25 -31 36 -31 16z"/>
<path d="M8915 2140 c3 -5 8 -10 11 -10 2 0 4 5 4 10 0 6 -5 10 -11 10 -5 0
-7 -4 -4 -10z"/>
<path d="M9174 2139 c-3 -6 -1 -16 5 -22 8 -8 11 -5 11 11 0 24 -5 28 -16 11z"/>
<path d="M8635 2119 c-4 -6 -13 -8 -21 -5 -8 3 -14 -1 -14 -9 0 -20 26 -19 34
0 8 22 25 18 19 -4 -3 -10 -1 -21 5 -25 5 -3 9 8 10 24 1 30 -20 42 -33 19z"/>
<path d="M9100 2100 c0 -5 5 -10 11 -10 5 0 7 5 4 10 -3 6 -8 10 -11 10 -2 0
-4 -4 -4 -10z"/>
<path d="M9060 2089 c0 -5 5 -7 10 -4 6 3 10 8 10 11 0 2 -4 4 -10 4 -5 0 -10
-5 -10 -11z"/>
<path d="M8400 2030 c20 -13 33 -13 25 0 -3 6 -14 10 -23 10 -15 0 -15 -2 -2
-10z"/>
<path d="M1480 2020 c-11 -7 -12 -12 -4 -20 8 -8 14 -7 23 4 14 17 1 28 -19
16z"/>
<path d="M7660 1970 c0 -5 5 -10 10 -10 6 0 10 5 10 10 0 6 -4 10 -10 10 -5 0
-10 -4 -10 -10z"/>
<path d="M7690 1970 c0 -5 4 -10 9 -10 6 0 13 5 16 10 3 6 -1 10 -9 10 -9 0
-16 -4 -16 -10z"/>
<path d="M7730 1960 c0 -5 5 -10 11 -10 5 0 7 5 4 10 -3 6 -8 10 -11 10 -2 0
-4 -4 -4 -10z"/>
<path d="M7583 1933 c9 -2 23 -2 30 0 6 3 -1 5 -18 5 -16 0 -22 -2 -12 -5z"/>
<path d="M7630 1925 c-10 -12 -10 -15 3 -15 8 0 20 7 27 15 10 12 10 15 -3 15
-8 0 -20 -7 -27 -15z"/>
<path d="M7788 1927 c-21 -6 -38 -14 -38 -19 0 -12 63 3 80 18 16 16 11 16
-42 1z"/>
<path d="M8880 1930 c8 -5 20 -10 25 -10 6 0 3 5 -5 10 -8 5 -19 10 -25 10 -5
0 -3 -5 5 -10z"/>
<path d="M7665 1901 c-14 -6 -5 -8 27 -7 25 1 41 4 35 8 -15 9 -36 9 -62 -1z"/>
<path d="M10151 1866 c-10 -11 -7 -14 13 -12 18 1 22 4 14 14 -13 15 -13 15
-27 -2z"/>
<path d="M8600 1859 c0 -5 5 -7 10 -4 6 3 10 8 10 11 0 2 -4 4 -10 4 -5 0 -10
-5 -10 -11z"/>
<path d="M1750 1840 c0 -5 5 -10 10 -10 6 0 10 5 10 10 0 6 -4 10 -10 10 -5 0
-10 -4 -10 -10z"/>
<path d="M8310 1840 c8 -5 22 -10 30 -10 13 0 13 1 0 10 -8 5 -22 10 -30 10
-13 0 -13 -1 0 -10z"/>
<path d="M1715 1830 c-3 -5 -1 -10 4 -10 6 0 11 5 11 10 0 6 -2 10 -4 10 -3 0
-8 -4 -11 -10z"/>
<path d="M8373 1825 c28 -20 88 -29 101 -14 8 9 8 10 0 6 -6 -4 -36 0 -65 7
-43 12 -50 12 -36 1z"/>
<path d="M10142 1808 c5 -15 28 -23 28 -10 0 5 -7 13 -16 16 -10 4 -14 1 -12
-6z"/>
<path d="M8508 1803 c7 -3 16 -2 19 1 4 3 -2 6 -13 5 -11 0 -14 -3 -6 -6z"/>
<path d="M10111 1751 c-8 -6 -9 -11 -3 -15 6 -3 14 -1 17 5 9 14 2 20 -14 10z"/>
<path d="M535 1273 c-11 -2 -40 -10 -65 -18 -25 -7 -97 -27 -160 -45 -167 -47
-310 -94 -310 -102 0 -4 6 -6 13 -3 6 2 55 17 107 34 52 17 160 49 240 72 228
65 236 67 215 67 -11 0 -29 -2 -40 -5z"/>
<path d="M680 1050 c0 -5 5 -10 11 -10 5 0 7 5 4 10 -3 6 -8 10 -11 10 -2 0
-4 -4 -4 -10z"/>
<path d="M760 1040 c-13 -11 -20 -20 -17 -20 14 0 57 24 57 32 0 14 -16 9 -40
-12z"/>
<path d="M693 978 c1 -26 7 -43 17 -46 12 -3 12 -2 3 8 -6 7 -9 27 -6 46 4 22
2 34 -6 34 -6 0 -10 -16 -8 -42z"/>
<path d="M787 963 c-2 -4 -1 -17 3 -27 6 -19 7 -19 14 -1 7 19 -8 44 -17 28z"/>
<path d="M8485 950 l-20 -9 20 0 c11 0 27 4 35 9 13 9 13 10 0 9 -8 0 -24 -4
-35 -9z"/>
<path d="M875 880 c-24 -27 -16 -33 14 -11 13 10 19 21 14 24 -6 4 -18 -2 -28
-13z"/>
<path d="M955 870 c-3 -5 -16 -10 -28 -10 -15 0 -18 -3 -10 -11 8 -8 18 -7 38
4 16 8 23 17 17 21 -6 3 -13 2 -17 -4z"/>
<path d="M8850 800 c0 -5 5 -10 10 -10 6 0 10 5 10 10 0 6 -4 10 -10 10 -5 0
-10 -4 -10 -10z"/>
<path d="M8978 793 c7 -3 16 -2 19 1 4 3 -2 6 -13 5 -11 0 -14 -3 -6 -6z"/>
<path d="M1230 770 c0 -5 5 -10 11 -10 5 0 7 5 4 10 -3 6 -8 10 -11 10 -2 0
-4 -4 -4 -10z"/>
<path d="M1270 761 c0 -5 11 -8 25 -8 14 0 25 3 25 8 0 5 -11 9 -25 9 -14 0
-25 -4 -25 -9z"/>
<path d="M3848 393 c6 -2 18 -2 25 0 6 3 1 5 -13 5 -14 0 -19 -2 -12 -5z"/>
<path d="M2000 231 c0 -5 9 -7 20 -4 11 3 20 7 20 9 0 2 -9 4 -20 4 -11 0 -20
-4 -20 -9z"/>
<path d="M4800 172 c0 -14 -8 -17 -41 -17 -22 0 -45 -5 -51 -12 -6 -7 -15 -9
-22 -5 -14 9 -27 10 -224 12 -154 2 -165 1 -183 -19 -10 -11 -38 -25 -62 -32
-49 -13 -57 -22 -57 -66 l0 -33 470 0 c307 0 470 3 470 10 0 6 -13 10 -28 10
-16 0 -37 9 -46 19 -17 18 -17 19 1 24 15 4 14 5 -4 6 -14 1 -23 8 -25 24 -2
14 -9 21 -21 21 -9 -1 -17 4 -17 12 0 8 -6 11 -15 8 -8 -4 -17 1 -21 10 -3 9
-15 16 -25 16 -10 0 -19 7 -19 15 0 11 -11 15 -40 15 -32 0 -40 -4 -40 -18z"/>
<path d="M4130 84 c0 -9 5 -14 12 -12 18 6 21 28 4 28 -9 0 -16 -7 -16 -16z"/>
<path d="M2192 38 c6 -18 28 -21 28 -4 0 9 -7 16 -16 16 -9 0 -14 -5 -12 -12z"/>
</g>
</svg>
